SplineFontDB: 3.0
FontName: Raleway-v4020-Regular
FullName: Raleway-v4020 Regular
FamilyName: Raleway-v4020
Weight: Regular
Copyright: Copyright \\(c\\) 2012, The Raleway Project Authors \\(matt@pixelspread.com\\)
Version: 004.020
ItalicAngle: 0
UnderlinePosition: -100
UnderlineWidth: 50
Ascent: 800
Descent: 200
InvalidEm: 0
sfntRevision: 0x0004051e
LayerCount: 2
Layer: 0 0 "Back" 1
Layer: 1 0 "Fore" 0
XUID: [1021 158 -1673460227 10189175]
StyleMap: 0x0040
FSType: 0
OS2Version: 4
OS2_WeightWidthSlopeOnly: 0
OS2_UseTypoMetrics: 1
CreationTime: 1479254918
ModificationTime: 1483436060
PfmFamily: 81
TTFWeight: 400
TTFWidth: 5
LineGap: 0
VLineGap: 0
Panose: 0 0 5 0 0 0 0 0 0 0
OS2TypoAscent: 940
OS2TypoAOffset: 0
OS2TypoDescent: -234
OS2TypoDOffset: 0
OS2TypoLinegap: 0
OS2WinAscent: 1154
OS2WinAOffset: 0
OS2WinDescent: 234
OS2WinDOffset: 0
HheadAscent: 940
HheadAOffset: 0
HheadDescent: -234
HheadDOffset: 0
OS2SubXSize: 650
OS2SubYSize: 600
OS2SubXOff: 0
OS2SubYOff: 75
OS2SupXSize: 650
OS2SupYSize: 600
OS2SupXOff: 0
OS2SupYOff: 350
OS2StrikeYSize: 50
OS2StrikeYPos: 312
OS2CapHeight: 710
OS2XHeight: 521
OS2Vendor: 'UKWN'
OS2CodePages: 20000197.00000000
OS2UnicodeRanges: 20000207.00000003.00000000.00000000
Lookup: 1 0 0 "'aalt' Access All Alternates lookup 0" { "'aalt' Access All Alternates lookup 0 subtable"  } ['aalt' ('DFLT' <'dflt' > 'cyrl' <'BGR ' 'SRB ' 'dflt' > 'latn' <'AZE ' 'CAT ' 'CRT ' 'KAZ ' 'MOL ' 'ROM ' 'TAT ' 'TRK ' 'dflt' > ) ]
Lookup: 3 0 0 "'aalt' Access All Alternates lookup 1" { "'aalt' Access All Alternates lookup 1 subtable"  } ['aalt' ('DFLT' <'dflt' > 'cyrl' <'BGR ' 'SRB ' 'dflt' > 'latn' <'AZE ' 'CAT ' 'CRT ' 'KAZ ' 'MOL ' 'ROM ' 'TAT ' 'TRK ' 'dflt' > ) ]

StartChar: A
Encoding: 65 65 0
Width: 676
GlyphClass: 2
Flags: MW
HStem: 0 21G<12 87 12 12 589 663 589 589> 222 55<193 481 193 497 178 481> 628 82<338 338> 690 20G<309 368 368 368>
VStem: 12 651<0 0>
AnchorPoint: "Anchor-11" 0 0 basechar 0
AnchorPoint: "Anchor-10" 0 0 basechar 0
AnchorPoint: "Anchor-9" 338 708 basechar 0
AnchorPoint: "Anchor-8" 663 0 basechar 0
AnchorPoint: "Anchor-7" 348 0 basechar 0
LayerCount: 2
Fore
SplineSet
309 710 m 1xd8
 368 710 l 1
 663 0 l 1
 589 0 l 1
 497 222 l 1
 178 222 l 1
 87 0 l 1
 12 0 l 1
 309 710 l 1xd8
481 277 m 1
 338 628 l 1xe8
 193 277 l 1
 481 277 l 1
EndSplineSet
Validated: 513
Substitution2: "Single Substitution lookup 43 subtable" ordfeminine
Substitution2: "'c2sc' Capitals to Small Capitals lookup 26 subtable" a.sc
AlternateSubs2: "'aalt' Access All Alternates lookup 1 subtable" ordfeminine a.sc
EndChar

StartChar: B
Encoding: 66 66 1
Width: 666
Flags: MW
HStem: 0 61<159 424 159 424> 330 57<159 403 403 431 159 403> 649 61<159 159 159 409>
VStem: 89 70<61 330 387 649> 524 69<493.5 554> 553 70<160 226 130 230>
LayerCount: 2
Fore
SplineSet
424 0 m 2xf4
 89 0 l 1
 89 710 l 1
 431 710 l 2
 531 710 593 618 593 529 c 0xf8
 593 458 555 393 491 364 c 1
 572 340 623 269 623 183 c 0
 623 77 533 0 424 0 c 2xf4
159 649 m 1
 159 387 l 1
 403 387 l 2
 473 387 524 449 524 518 c 0
 524 590 476 649 409 649 c 2
 159 649 l 1
431 330 m 2
 159 330 l 1
 159 61 l 1
 424 61 l 2
 496 61 553 125 553 195 c 0xf4
 553 265 501 330 431 330 c 2
EndSplineSet
Validated: 513
Substitution2: "'c2sc' Capitals to Small Capitals lookup 26 subtable" b.sc
Substitution2: "'aalt' Access All Alternates lookup 0 subtable" b.sc
EndChar

StartChar: C
Encoding: 67 67 2
Width: 686
GlyphClass: 2
Flags: MW
HStem: -6 63<302.5 418 302.5 428.5> 651 63<290 413.5>
VStem: 42 70<277.5 427.5 277.5 445.5>
AnchorPoint: "Anchor-11" 0 0 basechar 0
AnchorPoint: "Anchor-10" 0 0 basechar 0
AnchorPoint: "Anchor-9" 377 708 basechar 0
AnchorPoint: "Anchor-8" 0 0 basechar 0
AnchorPoint: "Anchor-7" 375 0 basechar 0
LayerCount: 2
Fore
SplineSet
379 714 m 0
 505 714 598 650 641 559 c 1
 586 525 l 1
 540 619 452 651 375 651 c 0
 205 651 112 499 112 356 c 0
 112 199 227 57 378 57 c 0
 458 57 552 97 597 189 c 1
 655 159 l 1
 609 53 483 -6 374 -6 c 0
 179 -6 42 180 42 360 c 0
 42 531 165 714 379 714 c 0
EndSplineSet
Validated: 513
Substitution2: "'c2sc' Capitals to Small Capitals lookup 26 subtable" c.sc
Substitution2: "'aalt' Access All Alternates lookup 0 subtable" c.sc
EndChar

StartChar: D
Encoding: 68 68 3
Width: 715
GlyphClass: 2
Flags: MW
HStem: 0 62<159 330 159 330> 648 62<159 330 159 159>
VStem: 89 70<62 648 62 710 62 710> 600 70<272.5 441>
AnchorPoint: "Anchor-11" 0 0 basechar 0
AnchorPoint: "Anchor-10" 357 355 basechar 0
AnchorPoint: "Anchor-9" 344 708 basechar 0
AnchorPoint: "Anchor-8" 0 0 basechar 0
AnchorPoint: "Anchor-7" 358 0 basechar 0
LayerCount: 2
Fore
SplineSet
89 0 m 1
 89 710 l 1
 330 710 l 2
 556 710 670 552 670 356 c 0
 670 141 537 0 330 0 c 2
 89 0 l 1
330 648 m 2
 159 648 l 1
 159 62 l 1
 330 62 l 2
 506 62 600 189 600 356 c 0
 600 526 503 648 330 648 c 2
EndSplineSet
Validated: 513
Substitution2: "'c2sc' Capitals to Small Capitals lookup 26 subtable" d.sc
Substitution2: "'aalt' Access All Alternates lookup 0 subtable" d.sc
EndChar

StartChar: E
Encoding: 69 69 4
Width: 609
GlyphClass: 2
Flags: MW
HStem: 0 62<159 566 159 566> 333 59<159 506 159 506> 648 62<159 557 159 159>
VStem: 89 70<62 333 392 648>
AnchorPoint: "Anchor-11" 0 0 basechar 0
AnchorPoint: "Anchor-10" 0 0 basechar 0
AnchorPoint: "Anchor-9" 337 708 basechar 0
AnchorPoint: "Anchor-8" 566 0 basechar 0
AnchorPoint: "Anchor-7" 337 0 basechar 0
LayerCount: 2
Fore
SplineSet
566 62 m 1
 566 0 l 1
 89 0 l 1
 89 710 l 1
 557 710 l 1
 557 648 l 1
 159 648 l 1
 159 392 l 1
 506 392 l 1
 506 333 l 1
 159 333 l 1
 159 62 l 1
 566 62 l 1
EndSplineSet
Validated: 513
Substitution2: "'c2sc' Capitals to Small Capitals lookup 26 subtable" e.sc
Substitution2: "'aalt' Access All Alternates lookup 0 subtable" e.sc
EndChar

StartChar: F
Encoding: 70 70 5
Width: 589
Flags: MW
HStem: 0 21G<89 89 89 159> 329 58<159 493 159 493> 648 62<159 555 159 159>
VStem: 89 70<0 329 387 648>
LayerCount: 2
Fore
SplineSet
89 0 m 1
 89 710 l 1
 555 710 l 1
 555 648 l 1
 159 648 l 1
 159 387 l 1
 493 387 l 1
 493 329 l 1
 159 329 l 1
 159 0 l 1
 89 0 l 1
EndSplineSet
Validated: 513
Substitution2: "'c2sc' Capitals to Small Capitals lookup 26 subtable" f.sc
Substitution2: "'aalt' Access All Alternates lookup 0 subtable" f.sc
EndChar

StartChar: G
Encoding: 71 71 6
Width: 716
GlyphClass: 2
Flags: MW
HStem: -5 63<303.5 417> 0 21G<602 661 602 602> 295 54<444 602 444 661> 652 63<290.5 416>
VStem: 42 70<275 430.5 275 451> 602 59<0 104 104 104 177 295 295 295>
AnchorPoint: "Anchor-11" 0 0 basechar 0
AnchorPoint: "Anchor-10" 0 0 basechar 0
AnchorPoint: "Anchor-9" 369 708 basechar 0
AnchorPoint: "Anchor-8" 0 0 basechar 0
AnchorPoint: "Anchor-7" 377 0 basechar 0
LayerCount: 2
Fore
SplineSet
444 349 m 1xbc
 661 349 l 1
 661 0 l 1
 602 0 l 1x7c
 602 104 l 1
 536 31 460 -5 374 -5 c 0
 183 -5 42 176 42 356 c 0
 42 546 181 715 370 715 c 0
 510 715 596 651 641 560 c 1
 587 524 l 1
 541 612 463 652 369 652 c 0
 212 652 112 506 112 355 c 0
 112 195 228 58 379 58 c 0
 461 58 534 96 602 177 c 1
 602 295 l 1
 444 295 l 1
 444 349 l 1xbc
EndSplineSet
Validated: 513
Substitution2: "'ss11' Style Set 11 lookup 41 subtable" G.ss11
Substitution2: "'c2sc' Capitals to Small Capitals lookup 26 subtable" g.sc
AlternateSubs2: "'aalt' Access All Alternates lookup 1 subtable" g.sc G.ss11
EndChar

StartChar: H
Encoding: 72 72 7
Width: 738
GlyphClass: 2
Flags: MW
HStem: 0 21G<89 159 89 89 580 649 580 580> 332 62<159 580 159 580> 690 20G<89 159 159 159 580 649 649 649>
VStem: 89 70<0 332 0 394 394 710> 580 69<0 332 332 332 394 710 0 710>
AnchorPoint: "Anchor-11" 0 0 basechar 0
AnchorPoint: "Anchor-10" 370 355 basechar 0
AnchorPoint: "Anchor-9" 371 708 basechar 0
AnchorPoint: "Anchor-8" 0 0 basechar 0
AnchorPoint: "Anchor-7" 370 0 basechar 0
LayerCount: 2
Fore
SplineSet
649 710 m 1
 649 0 l 1
 580 0 l 1
 580 332 l 1
 159 332 l 1
 159 0 l 1
 89 0 l 1
 89 710 l 1
 159 710 l 1
 159 394 l 1
 580 394 l 1
 580 710 l 1
 649 710 l 1
EndSplineSet
Validated: 513
Substitution2: "'c2sc' Capitals to Small Capitals lookup 26 subtable" h.sc
Substitution2: "'aalt' Access All Alternates lookup 0 subtable" h.sc
EndChar

StartChar: I
Encoding: 73 73 8
Width: 248
GlyphClass: 2
Flags: MW
HStem: 0 21G<89 89 89 159> 690 20G<89 159 159 159>
VStem: 89 70<0 710 0 710>
AnchorPoint: "Anchor-11" 0 0 basechar 0
AnchorPoint: "Anchor-10" 0 0 basechar 0
AnchorPoint: "Anchor-9" 124 708 basechar 0
AnchorPoint: "Anchor-8" 159 0 basechar 0
AnchorPoint: "Anchor-7" 124 0 basechar 0
LayerCount: 2
Fore
SplineSet
89 0 m 1
 89 710 l 1
 159 710 l 1
 159 0 l 1
 89 0 l 1
EndSplineSet
Validated: 513
Substitution2: "'c2sc' Capitals to Small Capitals lookup 26 subtable" i.sc
Substitution2: "'aalt' Access All Alternates lookup 0 subtable" i.sc
EndChar

StartChar: J
Encoding: 74 74 9
Width: 481
GlyphClass: 2
Flags: MW
HStem: -11 63<139 238.5 139 273> 690 20G<331 401 401 401>
VStem: 331 70<335 349 349 710>
AnchorPoint: "Anchor-11" 0 0 basechar 0
AnchorPoint: "Anchor-10" 0 0 basechar 0
AnchorPoint: "Anchor-9" 367 708 basechar 0
AnchorPoint: "Anchor-8" 0 0 basechar 0
AnchorPoint: "Anchor-7" 0 0 basechar 0
LayerCount: 2
Fore
SplineSet
34 89 m 1
 62 70 109 52 169 52 c 0
 308 52 331 146 331 335 c 2
 331 710 l 1
 401 710 l 1
 401 349 l 2
 401 136 375 -11 171 -11 c 0
 106 -11 56 4 14 33 c 1
 34 89 l 1
EndSplineSet
Validated: 513
Substitution2: "'c2sc' Capitals to Small Capitals lookup 26 subtable" j.sc
Substitution2: "'aalt' Access All Alternates lookup 0 subtable" j.sc
EndChar

StartChar: K
Encoding: 75 75 10
Width: 643
GlyphClass: 2
Flags: MW
HStem: 0 21G<89 89 89 159 563 563 563 642> 690 20G<550 627 627 627>
VStem: 89 70<0 218 297 709>
AnchorPoint: "Anchor-11" 0 0 basechar 0
AnchorPoint: "Anchor-10" 0 0 basechar 0
AnchorPoint: "Anchor-9" 0 0 basechar 0
AnchorPoint: "Anchor-8" 0 0 basechar 0
AnchorPoint: "Anchor-7" 331 0 basechar 0
LayerCount: 2
Fore
SplineSet
89 0 m 1
 89 709 l 1
 159 709 l 1
 159 297 l 1
 550 710 l 1
 627 710 l 1
 337 398 l 1
 642 0 l 1
 563 0 l 1
 292 356 l 1
 159 218 l 1
 159 0 l 1
 89 0 l 1
EndSplineSet
Validated: 513
Substitution2: "'c2sc' Capitals to Small Capitals lookup 26 subtable" k.sc
Substitution2: "'aalt' Access All Alternates lookup 0 subtable" k.sc
EndChar

StartChar: L
Encoding: 76 76 11
Width: 583
GlyphClass: 2
Flags: MW
HStem: 0 62<159 569 159 569> 690 20G<89 159 159 159>
VStem: 89 70<62 710 62 710 62 710>
AnchorPoint: "Anchor-11" 385 526 basechar 0
AnchorPoint: "Anchor-10" 291 355 basechar 0
AnchorPoint: "Anchor-9" 122 709 basechar 0
AnchorPoint: "Anchor-8" 0 0 basechar 0
AnchorPoint: "Anchor-7" 334 0 basechar 0
LayerCount: 2
Fore
SplineSet
89 0 m 1
 89 710 l 1
 159 710 l 1
 159 62 l 1
 569 62 l 1
 569 0 l 1
 89 0 l 1
EndSplineSet
Validated: 513
Substitution2: "'c2sc' Capitals to Small Capitals lookup 26 subtable" l.sc
Substitution2: "'aalt' Access All Alternates lookup 0 subtable" l.sc
EndChar

StartChar: M
Encoding: 77 77 12
Width: 877
GlyphClass: 2
Flags: MW
HStem: 0 21G<89 159 89 89 718 788 718 718> 578 132<159 159 718 718> 690 20G<89 161 161 161 717 788 788 788>
VStem: 89 70<0 578 0 710> 718 70<0 578 578 578>
AnchorPoint: "Anchor-11" 0 0 basechar 0
AnchorPoint: "Anchor-10" 0 0 basechar 0
AnchorPoint: "Anchor-9" 438 710 basechar 0
AnchorPoint: "Anchor-8" 0 0 basechar 0
AnchorPoint: "Anchor-7" 438 0 basechar 0
LayerCount: 2
Fore
SplineSet
718 0 m 1xb8
 718 578 l 1
 461 129 l 1
 417 129 l 1
 159 578 l 1xd8
 159 0 l 1
 89 0 l 1
 89 710 l 1
 161 710 l 1
 438 224 l 1
 717 710 l 1
 788 710 l 1
 788 0 l 1
 718 0 l 1xb8
EndSplineSet
Validated: 513
Substitution2: "'c2sc' Capitals to Small Capitals lookup 26 subtable" m.sc
Substitution2: "'aalt' Access All Alternates lookup 0 subtable" m.sc
EndChar

StartChar: N
Encoding: 78 78 13
Width: 772
GlyphClass: 2
Flags: MW
HStem: 0 21G<89 159 89 89 618 618 618 683> 690 20G<89 147 147 147>
VStem: 89 70<0 581 0 710> 613 70<118 709 0 709>
AnchorPoint: "Anchor-11" 0 0 basechar 0
AnchorPoint: "Anchor-10" 0 0 basechar 0
AnchorPoint: "Anchor-9" 389 708 basechar 0
AnchorPoint: "Anchor-8" 0 0 basechar 0
AnchorPoint: "Anchor-7" 389 0 basechar 0
LayerCount: 2
Fore
SplineSet
159 581 m 1
 159 0 l 1
 89 0 l 1
 89 710 l 1
 147 710 l 1
 613 118 l 1
 613 709 l 1
 683 709 l 1
 683 0 l 1
 618 0 l 1
 159 581 l 1
EndSplineSet
Validated: 513
Substitution2: "'c2sc' Capitals to Small Capitals lookup 26 subtable" n.sc
Substitution2: "'aalt' Access All Alternates lookup 0 subtable" n.sc
EndChar

StartChar: O
Encoding: 79 79 14
Width: 751
GlyphClass: 2
Flags: MW
HStem: -5 63<297 455.5 297 470> 651 64<294.5 452>
VStem: 42 70<278 428.5 278 449.5> 638 70<282 432>
AnchorPoint: "Anchor-11" 506 653 basechar 0
AnchorPoint: "Anchor-10" 375 355 basechar 0
AnchorPoint: "Anchor-9" 376 708 basechar 0
AnchorPoint: "Anchor-8" 445 5 basechar 0
AnchorPoint: "Anchor-7" 375 0 basechar 0
LayerCount: 2
Fore
SplineSet
42 355 m 0
 42 544 186 715 376 715 c 0
 574 715 708 532 708 354 c 0
 708 165 565 -5 375 -5 c 0
 177 -5 42 173 42 355 c 0
375 58 m 0
 536 58 638 209 638 355 c 0
 638 509 529 651 375 651 c 0
 214 651 112 502 112 355 c 0
 112 201 219 58 375 58 c 0
EndSplineSet
Validated: 513
Substitution2: "Single Substitution lookup 43 subtable" ordmasculine
Substitution2: "'c2sc' Capitals to Small Capitals lookup 26 subtable" o.sc
AlternateSubs2: "'aalt' Access All Alternates lookup 1 subtable" ordmasculine o.sc
EndChar

StartChar: P
Encoding: 80 80 15
Width: 622
Flags: MW
HStem: 0 21G<89 89 89 159> 262 62<159 386 386 389 159 386> 648 62<159 380 159 159>
VStem: 89 70<0 262 324 648> 524 70<444 531.5>
LayerCount: 2
Fore
SplineSet
89 0 m 1
 89 710 l 1
 383 710 l 2
 505 710 594 597 594 487 c 0
 594 371 511 262 389 262 c 2
 159 262 l 1
 159 0 l 1
 89 0 l 1
159 324 m 1
 386 324 l 2
 470 324 524 401 524 487 c 0
 524 576 458 648 380 648 c 2
 159 648 l 1
 159 324 l 1
EndSplineSet
Validated: 513
Substitution2: "'c2sc' Capitals to Small Capitals lookup 26 subtable" p.sc
Substitution2: "'aalt' Access All Alternates lookup 0 subtable" p.sc
EndChar

StartChar: Q
Encoding: 81 81 16
Width: 749
Flags: MW
HStem: -5 63<375 405 297 412> 0 21G<623 692 623 623> 652 63<294.5 452>
VStem: 42 70<278 428.5 278 449.5> 638 70<318 432>
LayerCount: 2
Fore
SplineSet
708 354 m 0xb8
 708 257 671 165 608 99 c 1
 692 0 l 1
 623 0 l 1x78
 570 63 l 1
 516 21 449 -5 375 -5 c 0
 177 -4 42 173 42 355 c 0
 42 544 186 715 376 715 c 0
 574 715 708 532 708 354 c 0xb8
375 58 m 0
 435 58 487 79 528 113 c 1
 439 218 l 1
 508 218 l 1
 565 150 l 1
 612 206 638 281 638 355 c 0
 638 509 529 652 375 652 c 0
 214 652 112 502 112 355 c 0
 112 201 219 58 375 58 c 0
EndSplineSet
Validated: 513
Substitution2: "'c2sc' Capitals to Small Capitals lookup 26 subtable" q.sc
Substitution2: "'aalt' Access All Alternates lookup 0 subtable" q.sc
EndChar

StartChar: R
Encoding: 82 82 17
Width: 653
GlyphClass: 2
Flags: MW
HStem: 0 21G<89 89 89 159 536 536 536 615> 262 62<159 369 159 391> 648 62<159 385 159 159>
VStem: 89 70<0 262 324 648> 529 70<445 530>
AnchorPoint: "Anchor-11" 0 0 basechar 0
AnchorPoint: "Anchor-10" 0 0 basechar 0
AnchorPoint: "Anchor-9" 304 710 basechar 0
AnchorPoint: "Anchor-8" 0 0 basechar 0
AnchorPoint: "Anchor-7" 327 0 basechar 0
LayerCount: 2
Fore
SplineSet
89 0 m 1
 89 710 l 1
 389 710 l 2
 511 710 599 597 599 487 c 0
 599 384 536 293 441 274 c 1
 615 0 l 1
 536 0 l 1
 369 262 l 1
 159 262 l 1
 159 0 l 1
 89 0 l 1
159 324 m 1
 391 324 l 2
 475 324 529 403 529 487 c 0
 529 573 463 648 385 648 c 2
 159 648 l 1
 159 324 l 1
EndSplineSet
Validated: 513
Substitution2: "'c2sc' Capitals to Small Capitals lookup 26 subtable" r.sc
Substitution2: "'aalt' Access All Alternates lookup 0 subtable" r.sc
EndChar

StartChar: S
Encoding: 83 83 18
Width: 607
GlyphClass: 2
Flags: MW
HStem: -6 62<265 375.5 265 391.5> 653 62<247.5 352.5>
VStem: 58 72<479 561.5 479 577> 499 74<138 222.5>
AnchorPoint: "Anchor-11" 0 0 basechar 0
AnchorPoint: "Anchor-10" 0 0 basechar 0
AnchorPoint: "Anchor-9" 314 723 basechar 0
AnchorPoint: "Anchor-8" 0 0 basechar 0
AnchorPoint: "Anchor-7" 315 0 basechar 0
LayerCount: 2
Fore
SplineSet
504 577 m 1
 464 622 395 653 310 653 c 0
 185 653 130 602 130 521 c 0
 130 437 191 415 327 385 c 0
 478 353 573 313 573 186 c 0
 573 55 466 -6 317 -6 c 0
 207 -6 111 29 32 97 c 1
 67 154 l 1
 118 100 211 56 319 56 c 0
 432 56 499 97 499 179 c 0
 499 266 426 294 285 326 c 0
 137 360 58 396 58 511 c 0
 58 643 163 715 311 715 c 0
 405 715 479 685 538 633 c 1
 504 577 l 1
EndSplineSet
Validated: 513
Substitution2: "'c2sc' Capitals to Small Capitals lookup 26 subtable" s.sc
Substitution2: "'aalt' Access All Alternates lookup 0 subtable" s.sc
EndChar

StartChar: T
Encoding: 84 84 19
Width: 610
GlyphClass: 2
Flags: MW
HStem: 0 21G<270 340 270 270> 648 62<17 270 17 593 340 593 340 340>
VStem: 270 70<0 648 0 648>
AnchorPoint: "Anchor-11" 0 0 basechar 0
AnchorPoint: "Anchor-10" 0 0 basechar 0
AnchorPoint: "Anchor-9" 307 708 basechar 0
AnchorPoint: "Anchor-8" 0 0 basechar 0
AnchorPoint: "Anchor-7" 307 0 basechar 0
LayerCount: 2
Fore
SplineSet
593 648 m 1
 340 648 l 1
 340 0 l 1
 270 0 l 1
 270 648 l 1
 17 648 l 1
 17 710 l 1
 593 710 l 1
 593 648 l 1
EndSplineSet
Validated: 513
Substitution2: "'c2sc' Capitals to Small Capitals lookup 26 subtable" t.sc
Substitution2: "'aalt' Access All Alternates lookup 0 subtable" t.sc
EndChar

StartChar: U
Encoding: 85 85 20
Width: 755
GlyphClass: 2
Flags: MW
HStem: -5 63<289 467 289 487> 690 20G<79 148 148 148 607 677 677 677>
VStem: 79 69<352 710> 607 70<352 710>
AnchorPoint: "Anchor-11" 709 654 basechar 0
AnchorPoint: "Anchor-10" 0 0 basechar 0
AnchorPoint: "Anchor-9" 378 708 basechar 0
AnchorPoint: "Anchor-8" 440 1 basechar 0
AnchorPoint: "Anchor-7" 378 0 basechar 0
LayerCount: 2
Fore
SplineSet
378 -5 m 0
 153 -5 79 171 79 352 c 2
 79 710 l 1
 148 710 l 1
 148 352 l 2
 148 203 201 58 377 58 c 0
 557 58 607 207 607 352 c 2
 607 710 l 1
 677 710 l 1
 677 352 l 2
 677 161 596 -5 378 -5 c 0
EndSplineSet
Validated: 513
Substitution2: "'c2sc' Capitals to Small Capitals lookup 26 subtable" u.sc
Substitution2: "'aalt' Access All Alternates lookup 0 subtable" u.sc
EndChar

StartChar: V
Encoding: 86 86 21
Width: 679
Flags: MW
HStem: 0 21G<308 372 308 308> 0 87<340 340 340 372 308 340> 690 20G<13 86 86 86 593 666 666 666>
VStem: 13 653<710 710>
LayerCount: 2
Fore
SplineSet
86 710 m 1xb0
 340 87 l 1x70
 593 710 l 1
 666 710 l 1
 372 0 l 1
 308 0 l 1
 13 710 l 1
 86 710 l 1xb0
EndSplineSet
Validated: 513
Substitution2: "'c2sc' Capitals to Small Capitals lookup 26 subtable" v.sc
Substitution2: "'aalt' Access All Alternates lookup 0 subtable" v.sc
EndChar

StartChar: W
Encoding: 87 87 22
Width: 1046
GlyphClass: 2
Flags: MW
HStem: 0 21G<312 373 312 312 672 734 672 672> 0 81<345 345 345 373 312 345> 690 20G<12 87 87 87 959 1035 1035 1035>
VStem: 12 1023<710 710>
AnchorPoint: "Anchor-11" 0 0 basechar 0
AnchorPoint: "Anchor-10" 0 0 basechar 0
AnchorPoint: "Anchor-9" 522 708 basechar 0
AnchorPoint: "Anchor-8" 0 0 basechar 0
AnchorPoint: "Anchor-7" 0 0 basechar 0
LayerCount: 2
Fore
SplineSet
356 705 m 1xb0
 422 705 l 1
 522 453 l 1
 623 705 l 1
 690 705 l 1
 566 402 l 1
 702 81 l 1
 959 710 l 1
 1035 710 l 1
 734 0 l 1
 672 0 l 1
 523 351 l 1
 373 0 l 1
 312 0 l 1
 12 710 l 1
 87 710 l 1
 345 81 l 1x70
 480 402 l 1
 356 705 l 1xb0
EndSplineSet
Validated: 513
Substitution2: "'ss09' Style Set 9 lookup 39 subtable" W.ss09
Substitution2: "'c2sc' Capitals to Small Capitals lookup 26 subtable" w.sc
AlternateSubs2: "'aalt' Access All Alternates lookup 1 subtable" w.sc W.ss09
EndChar

StartChar: X
Encoding: 88 88 23
Width: 632
Flags: MW
HStem: 0 21G<13 93 13 13 540 619 540 540> 690 20G<5 85 85 85 548 627 627 627>
VStem: 5 622<710 710>
LayerCount: 2
Fore
SplineSet
85 710 m 1
 317 401 l 1
 548 710 l 1
 627 710 l 1
 355 350 l 1
 619 0 l 1
 540 0 l 1
 317 299 l 1
 93 0 l 1
 13 0 l 1
 277 350 l 1
 5 710 l 1
 85 710 l 1
EndSplineSet
Validated: 513
Substitution2: "'c2sc' Capitals to Small Capitals lookup 26 subtable" x.sc
Substitution2: "'aalt' Access All Alternates lookup 0 subtable" x.sc
EndChar

StartChar: Y
Encoding: 89 89 24
Width: 651
GlyphClass: 2
Flags: MW
HStem: 0 21G<290 360 290 290> 690 20G<16 93 93 93 559 635 635 635>
VStem: 290 70<0 264 0 266 0 266>
AnchorPoint: "Anchor-11" 0 0 basechar 0
AnchorPoint: "Anchor-10" 0 0 basechar 0
AnchorPoint: "Anchor-9" 325 708 basechar 0
AnchorPoint: "Anchor-8" 0 0 basechar 0
AnchorPoint: "Anchor-7" 326 0 basechar 0
LayerCount: 2
Fore
SplineSet
93 710 m 1
 325 328 l 1
 559 710 l 1
 635 710 l 1
 360 264 l 1
 360 0 l 1
 290 0 l 1
 290 266 l 1
 16 710 l 1
 93 710 l 1
EndSplineSet
Validated: 513
Substitution2: "'c2sc' Capitals to Small Capitals lookup 26 subtable" y.sc
Substitution2: "'aalt' Access All Alternates lookup 0 subtable" y.sc
EndChar

StartChar: Z
Encoding: 90 90 25
Width: 629
GlyphClass: 2
Flags: MW
HStem: 0 62<118 594 118 594> 648 62<39 514 39 595>
VStem: 31 564
AnchorPoint: "Anchor-11" 0 0 basechar 0
AnchorPoint: "Anchor-10" 0 0 basechar 0
AnchorPoint: "Anchor-9" 331 708 basechar 0
AnchorPoint: "Anchor-8" 0 0 basechar 0
AnchorPoint: "Anchor-7" 315 0 basechar 0
LayerCount: 2
Fore
SplineSet
31 55 m 1
 514 648 l 1
 39 648 l 1
 39 710 l 1
 595 710 l 1
 595 655 l 1
 118 62 l 1
 594 62 l 1
 594 0 l 1
 31 0 l 1
 31 55 l 1
EndSplineSet
Validated: 513
Substitution2: "'c2sc' Capitals to Small Capitals lookup 26 subtable" z.sc
Substitution2: "'aalt' Access All Alternates lookup 0 subtable" z.sc
EndChar

StartChar: a
Encoding: 97 97 26
Width: 545
GlyphClass: 2
Flags: MW
HStem: -10 52<185 247.5> 0 21G<498 498> 263 46<212 278.5 188 285.5> 473 57<231 304>
VStem: 33 65<126 188 126 198> 405 68<160 236 236 236 285 323>
AnchorPoint: "Anchor-11" 0 0 basechar 0
AnchorPoint: "Anchor-10" 0 0 basechar 0
AnchorPoint: "Anchor-9" 263 521 basechar 0
AnchorPoint: "Anchor-8" 498 0 basechar 0
AnchorPoint: "Anchor-7" 290 0 basechar 0
LayerCount: 2
Fore
SplineSet
33 150 m 0xbc
 33 246 123 309 253 309 c 0
 304 309 362 300 405 285 c 1
 405 329 l 2
 405 417 350 473 258 473 c 0
 203 473 149 452 91 412 c 1
 65 460 l 1
 132 506 197 530 265 530 c 0
 393 530 473 452 473 323 c 2
 473 82 l 2
 473 63 481 55 498 54 c 1
 498 0 l 1
 483 -2 473 -3 467 -2 c 0
 433 -1 416 24 415 46 c 2x7c
 414 84 l 1
 367 24 286 -10 209 -10 c 0
 107 -10 33 61 33 150 c 0xbc
382 110 m 0
 397 127 405 147 405 160 c 2
 405 236 l 1
 360 254 310 263 261 263 c 0
 163 263 98 221 98 155 c 0
 98 97 145 42 225 42 c 0
 290 42 351 70 382 110 c 0
EndSplineSet
Validated: 513
Substitution2: "Single Substitution lookup 43 subtable" ordfeminine
Substitution2: "'ss02' Style Set 2 lookup 32 subtable" a.ss02
Substitution2: "'ss01' Style Set 1 lookup 31 subtable" a.ss01
Substitution2: "'salt' Stylistic Alternatives lookup 30 subtable" a.ss01
Substitution2: "'smcp' Lowercase to Small Capitals lookup 27 subtable" a.sc
AlternateSubs2: "'aalt' Access All Alternates lookup 1 subtable" ordfeminine a.sc a.ss01 a.ss02
EndChar

StartChar: b
Encoding: 98 98 27
Width: 617
Flags: MW
HStem: -10 60<289 371 280 400> 0 21G<75 136 75 75> 470 60<298 377> 710 20G<75 143 143 143>
VStem: 75 68<178 340 412 730> 508 69<205.5 313.5>
LayerCount: 2
Fore
SplineSet
136 101 m 1xbc
 136 0 l 1
 75 0 l 1x7c
 75 730 l 1
 143 730 l 1
 143 412 l 1
 189 482 255 530 341 530 c 0
 487 530 577 395 577 259 c 0
 577 113 470 -10 330 -10 c 0
 248 -10 175 36 136 101 c 1xbc
508 259 m 0
 508 368 432 470 322 470 c 0
 240 470 176 410 143 340 c 1
 143 178 l 1
 153 106 246 50 314 50 c 0xbc
 428 50 508 152 508 259 c 0
EndSplineSet
Validated: 513
Substitution2: "'smcp' Lowercase to Small Capitals lookup 27 subtable" b.sc
Substitution2: "'aalt' Access All Alternates lookup 0 subtable" b.sc
EndChar

StartChar: c
Encoding: 99 99 28
Width: 549
GlyphClass: 2
Flags: MW
HStem: -10 60<246.5 331.5 246.5 351> 470 60<244 329>
VStem: 39 69<203 321.5 203 336>
AnchorPoint: "Anchor-11" 0 0 basechar 0
AnchorPoint: "Anchor-10" 0 0 basechar 0
AnchorPoint: "Anchor-9" 298 521 basechar 0
AnchorPoint: "Anchor-8" 0 0 basechar 0
AnchorPoint: "Anchor-7" 301 0 basechar 0
LayerCount: 2
Fore
SplineSet
301 -10 m 0
 149 -10 39 114 39 262 c 0
 39 410 146 530 300 530 c 0
 398 530 475 482 512 406 c 1
 446 385 l 1
 417 438 361 470 297 470 c 0
 191 470 108 381 108 262 c 0
 108 144 195 50 298 50 c 0
 365 50 434 91 450 139 c 1
 517 119 l 1
 488 44 401 -10 301 -10 c 0
EndSplineSet
Validated: 513
Substitution2: "'smcp' Lowercase to Small Capitals lookup 27 subtable" c.sc
Substitution2: "'aalt' Access All Alternates lookup 0 subtable" c.sc
EndChar

StartChar: d
Encoding: 100 100 29
Width: 622
GlyphClass: 2
Flags: MW
HStem: -10 60<249.5 327> 0 21G<567 567> 470 60<239 321.5 209 331> 710 20G<475 543 543 543>
VStem: 40 70<202.5 312.5 202.5 332.5> 475 68<179 340 340 340 412 730>
AnchorPoint: "Anchor-11" 588 521 basechar 0
AnchorPoint: "Anchor-10" 311 261 basechar 0
AnchorPoint: "Anchor-9" 311 521 basechar 0
AnchorPoint: "Anchor-8" 0 0 basechar 0
AnchorPoint: "Anchor-7" 311 0 basechar 0
LayerCount: 2
Fore
SplineSet
40 259 m 0xbc
 40 406 140 530 278 530 c 0
 365 530 436 477 475 412 c 1
 475 730 l 1
 543 730 l 1
 543 82 l 2
 543 63 550 55 567 54 c 1
 567 0 l 1
 553 -2 545 -3 536 -2 c 0
 507 0 483 24 483 50 c 2x7c
 483 101 l 1
 442 33 365 -10 289 -10 c 0
 144 -10 40 119 40 259 c 0xbc
475 179 m 1
 475 340 l 1
 449 412 367 470 295 470 c 0
 183 470 110 366 110 259 c 0
 110 146 195 50 304 50 c 0
 372 50 464 108 475 179 c 1
EndSplineSet
Validated: 513
Substitution2: "'ss03' Style Set 3 lookup 33 subtable" d.ss03
Substitution2: "'smcp' Lowercase to Small Capitals lookup 27 subtable" d.sc
AlternateSubs2: "'aalt' Access All Alternates lookup 1 subtable" d.sc d.ss03
EndChar

StartChar: e
Encoding: 101 101 30
Width: 587
GlyphClass: 2
Flags: MW
HStem: -10 52<253 337 253 350.5> 236 49<110 493 108 556 110 110> 477 53<249 351>
VStem: 39 69<285 285 285 335> 493 64<285 285>
AnchorPoint: "Anchor-11" 0 0 basechar 0
AnchorPoint: "Anchor-10" 0 0 basechar 0
AnchorPoint: "Anchor-9" 297 521 basechar 0
AnchorPoint: "Anchor-8" 371 0 basechar 0
AnchorPoint: "Anchor-7" 300 0 basechar 0
LayerCount: 2
Fore
SplineSet
300 -10 m 0
 149 -10 39 114 39 262 c 0
 39 408 149 530 299 530 c 0
 452 530 557 406 557 263 c 0
 557 252 557 241 556 236 c 1
 110 236 l 1
 119 124 203 42 303 42 c 0
 371 42 438 80 463 136 c 1
 522 120 l 1
 490 44 401 -10 300 -10 c 0
108 285 m 1
 493 285 l 1
 484 398 402 477 300 477 c 0
 198 477 115 397 108 285 c 1
EndSplineSet
Validated: 513
Substitution2: "'smcp' Lowercase to Small Capitals lookup 27 subtable" e.sc
Substitution2: "'aalt' Access All Alternates lookup 0 subtable" e.sc
EndChar

StartChar: f
Encoding: 102 102 31
Width: 330
Flags: MW
HStem: 0 21G<100 100 100 168> 467 54<28 100 28 100 168 312> 681 59<234.5 273.5 206 280>
VStem: 100 68<0 467 0 467 521 535 535 537>
LayerCount: 2
Fore
SplineSet
100 0 m 1
 100 467 l 1
 28 467 l 1
 28 521 l 1
 100 521 l 1
 100 535 l 2
 100 662 159 740 253 740 c 0
 294 740 335 727 363 707 c 1
 342 658 l 1
 324 672 294 681 266 681 c 0
 203 681 168 630 168 537 c 2
 168 521 l 1
 312 521 l 1
 312 467 l 1
 168 467 l 1
 168 0 l 1
 100 0 l 1
EndSplineSet
Validated: 513
Substitution2: "'smcp' Lowercase to Small Capitals lookup 27 subtable" f.sc
Substitution2: "'aalt' Access All Alternates lookup 0 subtable" f.sc
EndChar

StartChar: g
Encoding: 103 103 32
Width: 618
GlyphClass: 2
Flags: MW
HStem: -223 54<249 338.5 249 357.5> -7 57<249 321.5> 470 60<237 326.5 210.5 332.5> 501 20G<482 543 543 543>
VStem: 40 69<202 309.5 202 331.5> 475 68<-2 101 101 101 179 340 340 340>
AnchorPoint: "Anchor-11" 0 0 basechar 0
AnchorPoint: "Anchor-10" 0 0 basechar 0
AnchorPoint: "Anchor-9" 301 521 basechar 0
AnchorPoint: "Anchor-8" 0 0 basechar 0
AnchorPoint: "Anchor-7" 0 0 basechar 0
LayerCount: 2
Fore
SplineSet
40 259 m 0xec
 40 404 139 530 282 530 c 0xec
 371 530 436 479 482 412 c 1
 482 521 l 1
 543 521 l 1xdc
 543 -2 l 2
 543 -147 427 -223 288 -223 c 0
 168 -223 100 -177 54 -105 c 1
 96 -72 l 1
 137 -138 210 -169 288 -169 c 0
 389 -169 475 -114 475 -2 c 2
 475 101 l 1
 435 35 359 -7 284 -7 c 0
 141 -7 40 122 40 259 c 0xec
475 179 m 1
 475 340 l 1
 446 415 370 470 295 470 c 0
 179 470 109 361 109 258 c 0
 109 146 195 50 303 50 c 0
 384 50 463 115 475 179 c 1
EndSplineSet
Validated: 513
Substitution2: "'smcp' Lowercase to Small Capitals lookup 27 subtable" g.sc
Substitution2: "'aalt' Access All Alternates lookup 0 subtable" g.sc
EndChar

StartChar: h
Encoding: 104 104 33
Width: 583
GlyphClass: 2
Flags: MW
HStem: 0 21G<75 143 75 75 445 513 445 445> 468 62<305.5 364> 710 20G<75 143 143 143>
VStem: 75 68<0 319 403 730> 445 68<0 291 291 305>
AnchorPoint: "Anchor-11" 0 0 basechar 0
AnchorPoint: "Anchor-10" 291 261 basechar 0
AnchorPoint: "Anchor-9" 313 710 basechar 0
AnchorPoint: "Anchor-8" 0 0 basechar 0
AnchorPoint: "Anchor-7" 291 0 basechar 0
LayerCount: 2
Fore
SplineSet
513 0 m 1
 445 0 l 1
 445 291 l 2
 445 409 403 468 325 468 c 0
 248 468 167 404 143 319 c 1
 143 0 l 1
 75 0 l 1
 75 730 l 1
 143 730 l 1
 143 403 l 1
 184 481 263 530 348 530 c 0
 467 530 513 439 513 305 c 2
 513 0 l 1
EndSplineSet
Validated: 513
Substitution2: "'smcp' Lowercase to Small Capitals lookup 27 subtable" h.sc
Substitution2: "'aalt' Access All Alternates lookup 0 subtable" h.sc
EndChar

StartChar: i
Encoding: 105 105 34
Width: 218
GlyphClass: 2
Flags: MW
HStem: 0 21G<75 75 75 143> 501 20G<75 143 143 143> 630 100<75 143 75 143>
VStem: 75 68<0 521 0 521 630 730>
AnchorPoint: "Anchor-11" 0 0 basechar 0
AnchorPoint: "Anchor-10" 0 0 basechar 0
AnchorPoint: "Anchor-9" 0 0 basechar 0
AnchorPoint: "Anchor-8" 143 0 basechar 0
AnchorPoint: "Anchor-7" 109 0 basechar 0
LayerCount: 2
Fore
SplineSet
75 630 m 1
 75 730 l 1
 143 730 l 1
 143 630 l 1
 75 630 l 1
75 0 m 1
 75 521 l 1
 143 521 l 1
 143 0 l 1
 75 0 l 1
EndSplineSet
Validated: 513
Substitution2: "Single Substitution lookup 43 subtable" dotlessi
Substitution2: "'smcp' Lowercase to Small Capitals lookup 27 subtable" i.sc
Substitution2: "'locl' Localized Forms in Latin lookup 11 subtable" i.loclTRK
Substitution2: "'locl' Localized Forms in Latin lookup 10 subtable" i.loclTRK
Substitution2: "'locl' Localized Forms in Latin lookup 9 subtable" i.loclTRK
Substitution2: "'locl' Localized Forms in Latin lookup 8 subtable" i.loclTRK
Substitution2: "'locl' Localized Forms in Latin lookup 7 subtable" i.loclTRK
AlternateSubs2: "'aalt' Access All Alternates lookup 1 subtable" dotlessi i.loclTRK i.sc
EndChar

StartChar: j
Encoding: 106 106 35
Width: 225
Flags: MW
HStem: -181 61<-23.5 12.5 -23.5 36> 501 20G<82 150 150 150> 630 100<82 150 82 150>
VStem: 82 68<-27 -23 -23 521 630 730>
LayerCount: 2
Fore
SplineSet
82 630 m 1
 82 730 l 1
 150 730 l 1
 150 630 l 1
 82 630 l 1
-117 -142 m 1
 -84 -96 l 1
 -63 -115 -36 -120 -11 -120 c 0
 36 -120 82 -80 82 -27 c 2
 82 521 l 1
 150 521 l 1
 150 -23 l 2
 150 -115 75 -181 -3 -181 c 0
 -47 -181 -87 -170 -117 -142 c 1
EndSplineSet
Validated: 513
Substitution2: "Single Substitution lookup 43 subtable" uni0237
Substitution2: "'ss04' Style Set 4 lookup 34 subtable" j.ss04
Substitution2: "'smcp' Lowercase to Small Capitals lookup 27 subtable" j.sc
AlternateSubs2: "'aalt' Access All Alternates lookup 1 subtable" uni0237 j.sc j.ss04
EndChar

StartChar: k
Encoding: 107 107 36
Width: 530
GlyphClass: 2
Flags: MW
HStem: 0 21G<75 143 75 75 447 521 447 447> 710 20G<75 143 143 143>
VStem: 75 68<0 163 236 730>
AnchorPoint: "Anchor-11" 0 0 basechar 0
AnchorPoint: "Anchor-10" 0 0 basechar 0
AnchorPoint: "Anchor-9" 0 0 basechar 0
AnchorPoint: "Anchor-8" 0 0 basechar 0
AnchorPoint: "Anchor-7" 276 0 basechar 0
LayerCount: 2
Fore
SplineSet
447 0 m 1
 254 267 l 1
 143 163 l 1
 143 0 l 1
 75 0 l 1
 75 730 l 1
 143 730 l 1
 143 236 l 1
 438 520 l 1
 513 520 l 1
 300 307 l 1
 521 0 l 1
 447 0 l 1
EndSplineSet
Validated: 513
Substitution2: "'smcp' Lowercase to Small Capitals lookup 27 subtable" k.sc
Substitution2: "'aalt' Access All Alternates lookup 0 subtable" k.sc
EndChar

StartChar: l
Encoding: 108 108 37
Width: 272
GlyphClass: 2
Flags: MW
HStem: -6 61<180 192.5> 710 20G<78 146 146 146>
VStem: 78 68<95 118 118 730>
AnchorPoint: "Anchor-11" 200 521 basechar 0
AnchorPoint: "Anchor-10" 136 261 basechar 0
AnchorPoint: "Anchor-9" 112 710 basechar 0
AnchorPoint: "Anchor-8" 0 0 basechar 0
AnchorPoint: "Anchor-7" 174 0 basechar 0
LayerCount: 2
Fore
SplineSet
78 730 m 1
 146 730 l 1
 146 118 l 2
 146 66 166 55 194 55 c 0
 219 55 244 61 261 67 c 1
 273 12 l 1
 248 2 206 -6 179 -6 c 0
 117 -6 78 32 78 95 c 2
 78 730 l 1
EndSplineSet
Validated: 513
Substitution2: "'ss05' Style Set 5 lookup 35 subtable" l.ss05
Substitution2: "'smcp' Lowercase to Small Capitals lookup 27 subtable" l.sc
AlternateSubs2: "'aalt' Access All Alternates lookup 1 subtable" l.sc l.ss05
EndChar

StartChar: m
Encoding: 109 109 38
Width: 919
GlyphClass: 2
Flags: MW
HStem: 0 21G<75 143 75 75 428 496 428 428 782 850 782 782> 468 62<294 352.5 648.5 705> 501 20G<75 137 137 137>
VStem: 75 68<0 319 0 521> 428 68<0 291 291 318 0 352.5> 782 68<0 291 291 305>
AnchorPoint: "Anchor-11" 0 0 basechar 0
AnchorPoint: "Anchor-10" 0 0 basechar 0
AnchorPoint: "Anchor-9" 460 521 basechar 0
AnchorPoint: "Anchor-8" 0 0 basechar 0
AnchorPoint: "Anchor-7" 460 0 basechar 0
LayerCount: 2
Fore
SplineSet
850 0 m 1xdc
 782 0 l 1
 782 291 l 2
 782 412 743 468 667 468 c 0
 588 468 521 406 496 318 c 1
 496 0 l 1
 428 0 l 1
 428 291 l 2
 428 414 391 468 314 468 c 0xdc
 236 468 169 408 143 319 c 1
 143 0 l 1
 75 0 l 1
 75 521 l 1
 137 521 l 1xbc
 137 403 l 1
 180 483 252 530 336 530 c 0
 423 530 478 475 490 396 c 1
 538 484 606 530 691 530 c 0
 808 530 850 441 850 305 c 2
 850 0 l 1xdc
EndSplineSet
Validated: 513
Substitution2: "'smcp' Lowercase to Small Capitals lookup 27 subtable" m.sc
Substitution2: "'aalt' Access All Alternates lookup 0 subtable" m.sc
EndChar

StartChar: n
Encoding: 110 110 39
Width: 583
GlyphClass: 2
Flags: MW
HStem: 0 21G<75 143 75 75 445 513 445 445> 468 62<311.5 371> 501 20G<75 137 137 137>
VStem: 75 68<0 319 0 521> 445 68<0 291 291 305>
AnchorPoint: "Anchor-11" 0 0 basechar 0
AnchorPoint: "Anchor-10" 0 0 basechar 0
AnchorPoint: "Anchor-9" 296 521 basechar 0
AnchorPoint: "Anchor-8" 0 0 basechar 0
AnchorPoint: "Anchor-7" 290 0 basechar 0
LayerCount: 2
Fore
SplineSet
513 0 m 1xd8
 445 0 l 1
 445 291 l 2
 445 414 409 468 333 468 c 0xd8
 253 468 168 405 143 319 c 1
 143 0 l 1
 75 0 l 1
 75 521 l 1
 137 521 l 1xb8
 137 403 l 1
 179 479 265 530 358 530 c 0
 474 530 513 442 513 305 c 2
 513 0 l 1xd8
EndSplineSet
Validated: 513
Substitution2: "'smcp' Lowercase to Small Capitals lookup 27 subtable" n.sc
Substitution2: "'aalt' Access All Alternates lookup 0 subtable" n.sc
EndChar

StartChar: o
Encoding: 111 111 40
Width: 595
GlyphClass: 2
Flags: MW
HStem: -10 60<245 349 245 372.5> 470 60<245.5 349>
VStem: 39 69<200 316.5 200 332> 487 69<202 318>
AnchorPoint: "Anchor-11" 434 465 basechar 0
AnchorPoint: "Anchor-10" 298 261 basechar 0
AnchorPoint: "Anchor-9" 297 521 basechar 0
AnchorPoint: "Anchor-8" 365 0 basechar 0
AnchorPoint: "Anchor-7" 297 0 basechar 0
LayerCount: 2
Fore
SplineSet
39 259 m 0
 39 405 148 530 297 530 c 0
 447 530 556 405 556 259 c 0
 556 114 448 -10 297 -10 c 0
 146 -10 39 114 39 259 c 0
297 50 m 0
 401 50 487 144 487 260 c 0
 487 376 401 470 297 470 c 0
 194 470 108 375 108 258 c 0
 108 142 193 50 297 50 c 0
EndSplineSet
Validated: 513
Substitution2: "Single Substitution lookup 43 subtable" ordmasculine
Substitution2: "'smcp' Lowercase to Small Capitals lookup 27 subtable" o.sc
AlternateSubs2: "'aalt' Access All Alternates lookup 1 subtable" ordmasculine o.sc
EndChar

StartChar: p
Encoding: 112 112 41
Width: 617
Flags: MW
HStem: -213 21G<75 143 75 75> -10 60<297.5 378.5 283.5 411> 470 60<290.5 368.5> 501 20G<75 136 136 136>
VStem: 75 68<-213 108 181 341> 508 69<207 316>
LayerCount: 2
Fore
SplineSet
143 108 m 1xec
 143 -213 l 1
 75 -213 l 1
 75 521 l 1
 136 521 l 1xdc
 136 420 l 1
 178 485 251 530 330 530 c 0
 473 530 577 399 577 260 c 0
 577 113 481 -10 341 -10 c 0
 254 -10 184 41 143 108 c 1xec
508 260 m 0xec
 508 372 423 470 314 470 c 0
 246 470 153 411 143 341 c 1
 143 181 l 1
 174 107 245 50 322 50 c 0
 435 50 508 154 508 260 c 0xec
EndSplineSet
Validated: 513
Substitution2: "'smcp' Lowercase to Small Capitals lookup 27 subtable" p.sc
Substitution2: "'aalt' Access All Alternates lookup 0 subtable" p.sc
EndChar

StartChar: q
Encoding: 113 113 42
Width: 617
Flags: MW
HStem: -213 21G<474 542 474 474> -10 60<242 315.5> 470 60<245 328.5 218.5 338.5> 501 20G<481 542 542 542>
VStem: 40 69<202.5 312 202.5 332.5> 474 68<-213 108 108 108 173 334 334 334>
LayerCount: 2
Fore
SplineSet
40 260 m 0xec
 40 405 149 530 288 530 c 0xec
 369 530 442 483 481 419 c 1
 481 521 l 1
 542 521 l 1xdc
 542 -213 l 1
 474 -213 l 1
 474 108 l 1
 424 31 355 -10 276 -10 c 0
 135 -10 40 119 40 260 c 0xec
474 173 m 1
 474 334 l 1
 463 406 376 470 301 470 c 0
 189 470 109 365 109 259 c 0
 109 146 187 50 297 50 c 0
 378 50 439 106 474 173 c 1
EndSplineSet
Validated: 513
Substitution2: "'ss06' Style Set 6 lookup 36 subtable" q.ss06
Substitution2: "'smcp' Lowercase to Small Capitals lookup 27 subtable" q.sc
AlternateSubs2: "'aalt' Access All Alternates lookup 1 subtable" q.sc q.ss06
EndChar

StartChar: r
Encoding: 114 114 43
Width: 351
GlyphClass: 2
Flags: MW
HStem: 0 21G<75 143 75 75> 461 62<305 335>
VStem: 75 68<0 324 0 521>
AnchorPoint: "Anchor-11" 0 0 basechar 0
AnchorPoint: "Anchor-10" 0 0 basechar 0
AnchorPoint: "Anchor-9" 201 521 basechar 0
AnchorPoint: "Anchor-8" 0 0 basechar 0
AnchorPoint: "Anchor-7" 107 0 basechar 0
LayerCount: 2
Fore
SplineSet
335 461 m 1
 244 458 171 408 143 324 c 1
 143 0 l 1
 75 0 l 1
 75 521 l 1
 139 521 l 1
 139 396 l 1
 175 469 238 517 305 523 c 0
 318 524 328 524 335 523 c 1
 335 461 l 1
EndSplineSet
Validated: 513
Substitution2: "'smcp' Lowercase to Small Capitals lookup 27 subtable" r.sc
Substitution2: "'aalt' Access All Alternates lookup 0 subtable" r.sc
EndChar

StartChar: s
Encoding: 115 115 44
Width: 483
GlyphClass: 2
Flags: MW
HStem: -10 55<210 283.5 210 306> 475 55<221 284>
VStem: 62 64<357.5 418.5 357.5 427> 380 66<109.5 171>
AnchorPoint: "Anchor-11" 0 0 basechar 0
AnchorPoint: "Anchor-10" 0 0 basechar 0
AnchorPoint: "Anchor-9" 248 521 basechar 0
AnchorPoint: "Anchor-8" 0 0 basechar 0
AnchorPoint: "Anchor-7" 245 0 basechar 0
LayerCount: 2
Fore
SplineSet
246 -10 m 0
 161 -10 86 18 32 75 c 1
 60 123 l 1
 118 68 177 45 243 45 c 0
 324 45 380 79 380 140 c 0
 380 202 322 212 226 237 c 0
 118 267 62 295 62 377 c 0
 62 477 146 530 257 530 c 0
 336 530 400 503 438 458 c 1
 405 412 l 1
 369 454 315 475 253 475 c 0
 189 475 126 452 126 385 c 0
 126 330 168 317 251 293 c 0
 370 261 446 239 446 145 c 0
 446 48 366 -10 246 -10 c 0
EndSplineSet
Validated: 513
Substitution2: "'smcp' Lowercase to Small Capitals lookup 27 subtable" s.sc
Substitution2: "'aalt' Access All Alternates lookup 0 subtable" s.sc
EndChar

StartChar: t
Encoding: 116 116 45
Width: 335
GlyphClass: 2
Flags: MW
HStem: -6 63<212 235> 467 54<25 97 25 97 165 285>
VStem: 97 68<113 467 113 467 113 467 521 697>
AnchorPoint: "Anchor-11" 241 521 basechar 0
AnchorPoint: "Anchor-10" 163 275 basechar 0
AnchorPoint: "Anchor-9" 138 710 basechar 0
AnchorPoint: "Anchor-8" 0 0 basechar 0
AnchorPoint: "Anchor-7" 207 0 basechar 0
LayerCount: 2
Fore
SplineSet
325 25 m 1
 309 18 263 -6 207 -6 c 0
 148 -6 97 27 97 94 c 2
 97 467 l 1
 25 467 l 1
 25 521 l 1
 97 521 l 1
 97 697 l 1
 165 697 l 1
 165 521 l 1
 285 521 l 1
 285 467 l 1
 165 467 l 1
 165 113 l 2
 168 75 196 57 228 57 c 0
 266 57 299 75 307 80 c 1
 325 25 l 1
EndSplineSet
Validated: 513
Substitution2: "'ss07' Style Set 7 lookup 37 subtable" t.ss07
Substitution2: "'smcp' Lowercase to Small Capitals lookup 27 subtable" t.sc
AlternateSubs2: "'aalt' Access All Alternates lookup 1 subtable" t.sc t.ss07
EndChar

StartChar: u
Encoding: 117 117 46
Width: 594
GlyphClass: 2
Flags: MW
HStem: -10 60<218.5 281.5> 0 21G<539 539> 501 20G<70 138 138 138 447 515 515 515>
VStem: 70 68<215 227 227 521> 447 68<193 521>
AnchorPoint: "Anchor-11" 543 464 basechar 0
AnchorPoint: "Anchor-10" 0 0 basechar 0
AnchorPoint: "Anchor-9" 290 521 basechar 0
AnchorPoint: "Anchor-8" 539 0 basechar 0
AnchorPoint: "Anchor-7" 298 5 basechar 0
LayerCount: 2
Fore
SplineSet
70 215 m 2xb8
 70 521 l 1
 138 521 l 1
 138 227 l 2
 138 108 178 50 259 50 c 0xb8
 339 50 416 106 447 193 c 1
 447 521 l 1
 515 521 l 1
 515 82 l 2
 515 63 522 55 539 54 c 1
 539 0 l 1
 523 -2 516 -2 507 -2 c 0
 479 0 458 21 457 48 c 2x78
 455 118 l 1
 410 37 327 -10 236 -10 c 0
 127 -10 70 67 70 215 c 2xb8
EndSplineSet
Validated: 513
Substitution2: "'ss08' Style Set 8 lookup 38 subtable" u.ss08
Substitution2: "'smcp' Lowercase to Small Capitals lookup 27 subtable" u.sc
AlternateSubs2: "'aalt' Access All Alternates lookup 1 subtable" u.sc u.ss08
EndChar

StartChar: v
Encoding: 118 118 47
Width: 533
Flags: MW
HStem: 0 21G<230 230 230 303> 0 68<230 268 268 268 268 303> 501 20G<19 90 90 90 447 514 514 514>
VStem: 19 495<521 521>
LayerCount: 2
Fore
SplineSet
230 0 m 1xb0
 19 521 l 1
 90 521 l 1
 268 68 l 1x70
 447 521 l 1
 514 521 l 1
 303 0 l 1
 230 0 l 1xb0
EndSplineSet
Validated: 513
Substitution2: "'smcp' Lowercase to Small Capitals lookup 27 subtable" v.sc
Substitution2: "'aalt' Access All Alternates lookup 0 subtable" v.sc
EndChar

StartChar: w
Encoding: 119 119 48
Width: 813
GlyphClass: 2
Flags: MW
HStem: 0 70<271 271 271 298 239 271> 501 20G<15 81 81 81 731 798 798 798>
VStem: 15 783<521 521>
AnchorPoint: "Anchor-11" 0 0 basechar 0
AnchorPoint: "Anchor-10" 0 0 basechar 0
AnchorPoint: "Anchor-9" 406 521 basechar 0
AnchorPoint: "Anchor-8" 0 0 basechar 0
AnchorPoint: "Anchor-7" 0 0 basechar 0
LayerCount: 2
Fore
SplineSet
731 521 m 1
 798 521 l 1
 574 0 l 1
 515 0 l 1
 406 259 l 1
 298 0 l 1
 239 0 l 1
 15 521 l 1
 81 521 l 1
 271 70 l 1
 367 305 l 1
 279 520 l 1
 340 520 l 1
 406 351 l 1
 473 520 l 1
 533 520 l 1
 446 305 l 1
 542 70 l 1
 731 521 l 1
EndSplineSet
Validated: 513
Substitution2: "'ss09' Style Set 9 lookup 39 subtable" w.ss09
Substitution2: "'smcp' Lowercase to Small Capitals lookup 27 subtable" w.sc
AlternateSubs2: "'aalt' Access All Alternates lookup 1 subtable" w.sc w.ss09
EndChar

StartChar: x
Encoding: 120 120 49
Width: 504
Flags: MW
HStem: 0 21G<15 92 15 15 412 489 412 412> 501 20G<15 91 91 91 412 489 489 489>
VStem: 15 474<0 0>
LayerCount: 2
Fore
SplineSet
91 521 m 1
 244 317 l 1
 252 302 l 1
 260 317 l 1
 412 521 l 1
 489 521 l 1
 291 259 l 1
 489 0 l 1
 412 0 l 1
 260 203 l 1
 252 217 l 1
 244 203 l 1
 92 0 l 1
 15 0 l 1
 212 259 l 1
 15 521 l 1
 91 521 l 1
EndSplineSet
Validated: 513
Substitution2: "'smcp' Lowercase to Small Capitals lookup 27 subtable" x.sc
Substitution2: "'aalt' Access All Alternates lookup 0 subtable" x.sc
EndChar

StartChar: y
Encoding: 121 121 50
Width: 542
GlyphClass: 2
Flags: MW
HStem: -223 63 501 20G<15 87 87 87 454 522 522 522>
VStem: 15 507<521 521>
AnchorPoint: "Anchor-11" 0 0 basechar 0
AnchorPoint: "Anchor-10" 0 0 basechar 0
AnchorPoint: "Anchor-9" 278 521 basechar 0
AnchorPoint: "Anchor-8" 0 0 basechar 0
AnchorPoint: "Anchor-7" 374 0 basechar 0
LayerCount: 2
Fore
SplineSet
105 -160 m 1
 123 -161 143 -162 151 -160 c 0
 176 -157 188 -133 242 0 c 1
 15 521 l 1
 87 521 l 1
 278 70 l 1
 454 521 l 1
 522 521 l 1
 252 -151 l 2
 237 -190 204 -222 146 -223 c 0
 134 -224 122 -224 105 -221 c 1
 105 -160 l 1
EndSplineSet
Validated: 545
Substitution2: "'ss10' Style Set 10 lookup 40 subtable" y.ss10
Substitution2: "'smcp' Lowercase to Small Capitals lookup 27 subtable" y.sc
AlternateSubs2: "'aalt' Access All Alternates lookup 1 subtable" y.sc y.ss10
EndChar

StartChar: z
Encoding: 122 122 51
Width: 492
GlyphClass: 2
Flags: MW
HStem: 0 51<110 456 110 456> 470 51<39 380 39 457>
VStem: 31 426
AnchorPoint: "Anchor-11" 0 0 basechar 0
AnchorPoint: "Anchor-10" 0 0 basechar 0
AnchorPoint: "Anchor-9" 255 521 basechar 0
AnchorPoint: "Anchor-8" 0 0 basechar 0
AnchorPoint: "Anchor-7" 246 0 basechar 0
LayerCount: 2
Fore
SplineSet
31 46 m 1
 380 470 l 1
 39 470 l 1
 39 521 l 1
 457 521 l 1
 457 475 l 1
 110 51 l 1
 456 51 l 1
 456 0 l 1
 31 0 l 1
 31 46 l 1
EndSplineSet
Validated: 513
Substitution2: "'smcp' Lowercase to Small Capitals lookup 27 subtable" z.sc
Substitution2: "'aalt' Access All Alternates lookup 0 subtable" z.sc
EndChar

StartChar: zero
Encoding: 48 48 52
Width: 612
Flags: MW
HStem: -10 64<252 359.5 252 378> 533 64<252 359.5>
VStem: 55 68<221.5 364.5 221.5 381> 488 69<221.5 364.5>
LayerCount: 2
Fore
SplineSet
306 -10 m 0
 161 -10 55 117 55 293 c 0
 55 469 161 597 306 597 c 0
 450 597 557 469 557 293 c 0
 557 117 450 -10 306 -10 c 0
306 533 m 0
 198 533 123 436 123 293 c 0
 123 150 198 54 306 54 c 0
 413 54 488 150 488 293 c 0
 488 436 413 533 306 533 c 0
EndSplineSet
Validated: 513
Substitution2: "'lnum' Lining Figures lookup 42 subtable" zero.lf
Substitution2: "'frac' Diagonal Fractions lookup 22 subtable" zero.numr
Substitution2: "'dnom' Denominators lookup 20 subtable" zero.dnom
Substitution2: "'numr' Numerators lookup 19 subtable" zero.numr
Substitution2: "'sups' Superscript lookup 18 subtable" uni2070
Substitution2: "'sinf' Scientific Inferiors lookup 17 subtable" zero.subs
Substitution2: "'subs' Subscript lookup 16 subtable" uni2080
AlternateSubs2: "'aalt' Access All Alternates lookup 1 subtable" uni2080 zero.subs uni2070 zero.numr zero.dnom zero.lf
EndChar

StartChar: one
Encoding: 49 49 53
Width: 428
Flags: MW
HStem: 0 62<67 209 279 406 67 209> 410 66<46 72>
VStem: 209 70<62 490 490 490 62 571>
LayerCount: 2
Fore
SplineSet
406 62 m 1
 406 0 l 1
 67 0 l 1
 67 62 l 1
 209 62 l 1
 209 490 l 1
 187 459 98 410 46 410 c 1
 46 476 l 1
 108 476 203 559 209 571 c 1
 279 571 l 1
 279 62 l 1
 406 62 l 1
EndSplineSet
Validated: 513
Substitution2: "'lnum' Lining Figures lookup 42 subtable" one.lf
Substitution2: "'frac' Diagonal Fractions lookup 22 subtable" one.numr
Substitution2: "'dnom' Denominators lookup 20 subtable" one.dnom
Substitution2: "'numr' Numerators lookup 19 subtable" one.numr
Substitution2: "'sups' Superscript lookup 18 subtable" uni00B9
Substitution2: "'sinf' Scientific Inferiors lookup 17 subtable" one.subs
Substitution2: "'subs' Subscript lookup 16 subtable" uni2081
AlternateSubs2: "'aalt' Access All Alternates lookup 1 subtable" uni2081 one.subs uni00B9 one.numr one.dnom one.lf
EndChar

StartChar: two
Encoding: 50 50 54
Width: 521
Flags: MW
HStem: 0 62<115 473 115 473> 520 61<214.5 300.5>
VStem: 389 73<376.5 442>
LayerCount: 2
Fore
SplineSet
44 0 m 1
 44 90 67 188 210 262 c 0
 287 302 389 336 389 417 c 0
 389 467 344 520 257 520 c 0
 172 520 118 464 96 439 c 1
 53 486 l 1
 68 503 146 581 268 581 c 0
 390 581 462 508 462 424 c 0
 462 316 353 269 289 239 c 0
 163 179 127 121 115 62 c 1
 473 62 l 1
 473 0 l 1
 44 0 l 1
EndSplineSet
Validated: 513
Substitution2: "'lnum' Lining Figures lookup 42 subtable" two.lf
Substitution2: "'frac' Diagonal Fractions lookup 22 subtable" two.numr
Substitution2: "'dnom' Denominators lookup 20 subtable" two.dnom
Substitution2: "'numr' Numerators lookup 19 subtable" two.numr
Substitution2: "'sups' Superscript lookup 18 subtable" uni00B2
Substitution2: "'sinf' Scientific Inferiors lookup 17 subtable" two.subs
Substitution2: "'subs' Subscript lookup 16 subtable" uni2082
AlternateSubs2: "'aalt' Access All Alternates lookup 1 subtable" uni2082 two.subs uni00B2 two.numr two.dnom two.lf
EndChar

StartChar: three
Encoding: 51 51 55
Width: 534
Flags: MW
HStem: -147 62<214 306.5 214 326> 205 58<218 243 218 245> 514 62<221 300.5>
VStem: 404 71<356.5 431> 418 70<11 101.5>
LayerCount: 2
Fore
SplineSet
488 55 m 0xe8
 488 -66 395 -147 257 -147 c 0
 156 -147 76 -104 38 -32 c 1
 85 11 l 1
 113 -47 171 -85 257 -85 c 0
 356 -85 418 -34 418 56 c 0xe8
 418 147 355 205 243 205 c 2
 218 205 l 1
 218 263 l 1
 245 263 l 2
 347 263 404 316 404 391 c 0
 404 471 342 514 259 514 c 0
 183 514 122 478 93 418 c 1
 49 460 l 1
 82 530 168 576 265 576 c 0
 388 576 475 503 475 397 c 0xf0
 475 316 425 248 343 236 c 1
 431 222 488 151 488 55 c 0xe8
EndSplineSet
Validated: 513
Substitution2: "'lnum' Lining Figures lookup 42 subtable" three.lf
Substitution2: "'frac' Diagonal Fractions lookup 22 subtable" three.numr
Substitution2: "'dnom' Denominators lookup 20 subtable" three.dnom
Substitution2: "'numr' Numerators lookup 19 subtable" three.numr
Substitution2: "'sups' Superscript lookup 18 subtable" uni00B3
Substitution2: "'sinf' Scientific Inferiors lookup 17 subtable" three.subs
Substitution2: "'subs' Subscript lookup 16 subtable" uni2083
AlternateSubs2: "'aalt' Access All Alternates lookup 1 subtable" uni2083 three.subs uni00B3 three.numr three.dnom three.lf
EndChar

StartChar: four
Encoding: 52 52 56
Width: 546
Flags: MW
HStem: 51 62<95 356 95 424 424 512>
VStem: 363 61<113 464 464 464>
LayerCount: 2
Fore
SplineSet
356 -127 m 1
 356 51 l 1
 23 51 l 1
 23 111 l 1
 378 571 l 1
 424 571 l 1
 424 113 l 1
 512 113 l 1
 512 51 l 1
 424 51 l 1
 424 -127 l 1
 356 -127 l 1
95 113 m 1
 363 113 l 1
 363 464 l 1
 95 113 l 1
EndSplineSet
Validated: 513
Substitution2: "'lnum' Lining Figures lookup 42 subtable" four.lf
Substitution2: "'frac' Diagonal Fractions lookup 22 subtable" four.numr
Substitution2: "'dnom' Denominators lookup 20 subtable" four.dnom
Substitution2: "'numr' Numerators lookup 19 subtable" four.numr
Substitution2: "'sups' Superscript lookup 18 subtable" uni2074
Substitution2: "'sinf' Scientific Inferiors lookup 17 subtable" four.subs
Substitution2: "'subs' Subscript lookup 16 subtable" uni2084
AlternateSubs2: "'aalt' Access All Alternates lookup 1 subtable" uni2084 four.subs uni2074 four.numr four.dnom four.lf
EndChar

StartChar: five
Encoding: 53 53 57
Width: 545
Flags: MW
HStem: -149 61<224.5 312.5 224.5 330> 251 61<247.5 317> 508 63<180 472 180 180>
VStem: 439 70<34 134>
LayerCount: 2
Fore
SplineSet
262 -149 m 0
 162 -149 75 -95 35 -13 c 1
 80 21 l 1
 117 -44 186 -88 263 -88 c 0
 362 -88 439 -17 439 85 c 0
 439 183 365 251 269 251 c 0
 207 251 148 223 113 171 c 1
 50 171 l 1
 129 571 l 1
 472 571 l 1
 472 508 l 1
 180 508 l 1
 131 253 l 1
 165 290 218 312 277 312 c 0
 407 312 509 219 509 86 c 0
 509 -55 398 -149 262 -149 c 0
EndSplineSet
Validated: 513
Substitution2: "'lnum' Lining Figures lookup 42 subtable" five.lf
Substitution2: "'frac' Diagonal Fractions lookup 22 subtable" five.numr
Substitution2: "'dnom' Denominators lookup 20 subtable" five.dnom
Substitution2: "'numr' Numerators lookup 19 subtable" five.numr
Substitution2: "'sups' Superscript lookup 18 subtable" uni2075
Substitution2: "'sinf' Scientific Inferiors lookup 17 subtable" five.subs
Substitution2: "'subs' Subscript lookup 16 subtable" uni2085
AlternateSubs2: "'aalt' Access All Alternates lookup 1 subtable" uni2085 five.subs uni2075 five.numr five.dnom five.lf
EndChar

StartChar: six
Encoding: 54 54 58
Width: 603
Flags: MW
HStem: 474 181<270 351.5 255 383>
VStem: 52 507<194.5 301 166.5 431.5>
LayerCount: 2
Fore
SplineSet
315 474 m 0
 225 474 147 423 118 345 c 1
 119 541 196 655 314 655 c 0
 389 655 454 611 482 543 c 1
 526 583 l 1
 487 665 408 715 314 715 c 0
 158 715 52 576 52 287 c 0
 52 102 158 -10 307 -10 c 0
 449 -10 559 99 559 234 c 0
 559 368 451 474 315 474 c 0
123 234 m 0
 123 335 207 418 308 418 c 0
 409 418 494 335 494 234 c 0
 494 133 410 50 309 50 c 0
 208 50 123 134 123 234 c 0
EndSplineSet
Validated: 521
Substitution2: "'lnum' Lining Figures lookup 42 subtable" six.lf
Substitution2: "'frac' Diagonal Fractions lookup 22 subtable" six.numr
Substitution2: "'dnom' Denominators lookup 20 subtable" six.dnom
Substitution2: "'numr' Numerators lookup 19 subtable" six.numr
Substitution2: "'sups' Superscript lookup 18 subtable" uni2076
Substitution2: "'sinf' Scientific Inferiors lookup 17 subtable" six.subs
Substitution2: "'subs' Subscript lookup 16 subtable" uni2086
AlternateSubs2: "'aalt' Access All Alternates lookup 1 subtable" uni2086 six.subs uni2076 six.numr six.dnom six.lf
EndChar

StartChar: seven
Encoding: 55 55 59
Width: 535
Flags: MW
HStem: 520 63<34 417 34 525>
VStem: 34 491<520 583 583 583>
LayerCount: 2
Fore
SplineSet
417 520 m 1
 34 520 l 1
 34 583 l 1
 525 583 l 1
 166 -127 l 1
 88 -127 l 1
 417 520 l 1
EndSplineSet
Validated: 513
Substitution2: "'lnum' Lining Figures lookup 42 subtable" seven.lf
Substitution2: "'frac' Diagonal Fractions lookup 22 subtable" seven.numr
Substitution2: "'dnom' Denominators lookup 20 subtable" seven.dnom
Substitution2: "'numr' Numerators lookup 19 subtable" seven.numr
Substitution2: "'sups' Superscript lookup 18 subtable" uni2077
Substitution2: "'sinf' Scientific Inferiors lookup 17 subtable" seven.subs
Substitution2: "'subs' Subscript lookup 16 subtable" uni2087
AlternateSubs2: "'aalt' Access All Alternates lookup 1 subtable" uni2087 seven.subs uni2077 seven.numr seven.dnom seven.lf
EndChar

StartChar: eight
Encoding: 56 56 60
Width: 593
Flags: MW
HStem: -8 61<256 341 256 361> 351 54<261 331.5 261 337> 648 62<256 335>
VStem: 50 70<154.5 246.5 154.5 246.5> 75 68<494 564 487 587.5> 450 69<495 566> 474 69<157 242 135 249.5>
LayerCount: 2
Fore
SplineSet
294 -8 m 0xf2
 152 -8 50 86 50 201 c 0xf2
 50 292 123 356 192 380 c 1
 129 406 75 459 75 529 c 0
 75 646 191 710 297 710 c 0
 403 710 519 646 519 530 c 0xec
 519 460 464 406 400 380 c 1
 478 353 543 287 543 197 c 0
 543 73 428 -8 294 -8 c 0xf2
296 405 m 0xec
 367 405 450 450 450 528 c 0
 450 604 375 648 295 648 c 0
 217 648 143 602 143 526 c 0
 143 448 226 405 296 405 c 0xec
295 351 m 0xf2
 208 351 120 292 120 201 c 0
 120 108 214 53 298 53 c 0
 384 53 474 112 474 202 c 0
 474 297 379 351 295 351 c 0xf2
EndSplineSet
Validated: 513
Substitution2: "'lnum' Lining Figures lookup 42 subtable" eight.lf
Substitution2: "'frac' Diagonal Fractions lookup 22 subtable" eight.numr
Substitution2: "'dnom' Denominators lookup 20 subtable" eight.dnom
Substitution2: "'numr' Numerators lookup 19 subtable" eight.numr
Substitution2: "'sups' Superscript lookup 18 subtable" uni2078
Substitution2: "'sinf' Scientific Inferiors lookup 17 subtable" eight.subs
Substitution2: "'subs' Subscript lookup 16 subtable" uni2088
AlternateSubs2: "'aalt' Access All Alternates lookup 1 subtable" uni2088 eight.subs uni2078 eight.numr eight.dnom eight.lf
EndChar

StartChar: nine
Encoding: 57 57 61
Width: 586
Flags: MW
HStem: -94 181<244 325 212 340>
VStem: 36 507<260 366.5 129.5 394.5>
LayerCount: 2
Fore
SplineSet
280 87 m 0
 370 87 448 138 478 216 c 1
 476 20 399 -94 281 -94 c 0
 207 -94 141 -50 113 18 c 1
 69 -22 l 1
 108 -104 188 -154 281 -154 c 0
 437 -154 543 -15 543 274 c 0
 543 459 437 571 288 571 c 0
 147 571 36 462 36 327 c 0
 36 193 144 87 280 87 c 0
472 327 m 0
 472 226 389 143 287 143 c 0
 186 143 101 226 101 327 c 0
 101 428 186 511 287 511 c 0
 388 511 472 427 472 327 c 0
EndSplineSet
Validated: 521
Substitution2: "'lnum' Lining Figures lookup 42 subtable" nine.lf
Substitution2: "'frac' Diagonal Fractions lookup 22 subtable" nine.numr
Substitution2: "'dnom' Denominators lookup 20 subtable" nine.dnom
Substitution2: "'numr' Numerators lookup 19 subtable" nine.numr
Substitution2: "'sups' Superscript lookup 18 subtable" uni2079
Substitution2: "'sinf' Scientific Inferiors lookup 17 subtable" nine.subs
Substitution2: "'subs' Subscript lookup 16 subtable" uni2089
AlternateSubs2: "'aalt' Access All Alternates lookup 1 subtable" uni2089 nine.subs uni2079 nine.numr nine.dnom nine.lf
EndChar

StartChar: asterisk
Encoding: 42 42 62
Width: 321
Flags: MW
HStem: 693 20G<140 181 181 181>
VStem: 141 39
LayerCount: 2
Fore
SplineSet
87 546 m 1
 130 608 l 1
 62 630 l 1
 73 666 l 1
 142 640 l 1
 140 713 l 1
 181 713 l 1
 179 640 l 1
 248 666 l 1
 259 630 l 1
 191 608 l 1
 235 546 l 1
 203 524 l 1
 161 589 l 1
 118 524 l 1
 87 546 l 1
EndSplineSet
Validated: 1
EndChar

StartChar: backslash
Encoding: 92 92 63
Width: 568
Flags: MW
HStem: 0 21G<464 540 464 464> 690 20G<28 105 105 105>
VStem: 28 512
LayerCount: 2
Fore
SplineSet
105 710 m 1
 540 0 l 1
 464 0 l 1
 28 710 l 1
 105 710 l 1
EndSplineSet
Validated: 1
EndChar

StartChar: colon
Encoding: 58 58 64
Width: 188
Flags: MW
HStem: 0 98<65 123 65 123> 420 98<65 123 65 123>
VStem: 65 58<0 98 0 98 420 518>
LayerCount: 2
Fore
SplineSet
65 420 m 1
 65 518 l 1
 123 518 l 1
 123 420 l 1
 65 420 l 1
65 0 m 1
 65 98 l 1
 123 98 l 1
 123 0 l 1
 65 0 l 1
EndSplineSet
Validated: 1
EndChar

StartChar: comma
Encoding: 44 44 65
Width: 225
Flags: MW
HStem: 3 95<80 103 80 146 80 146>
VStem: 80 66<3 98 3 98>
LayerCount: 2
Fore
SplineSet
86 -81 m 1
 103 3 l 1
 80 3 l 1
 80 98 l 1
 146 98 l 1
 146 3 l 1
 121 -81 l 1
 86 -81 l 1
EndSplineSet
Validated: 1
EndChar

StartChar: exclam
Encoding: 33 33 66
Width: 252
Flags: MW
HStem: 0 112<92 160 92 160> 697 20G<92 160 160 160>
VStem: 92 68<0 112 0 112 228 717>
LayerCount: 2
Fore
SplineSet
92 228 m 1
 92 717 l 1
 160 717 l 1
 160 228 l 1
 92 228 l 1
92 0 m 1
 92 112 l 1
 160 112 l 1
 160 0 l 1
 92 0 l 1
EndSplineSet
Validated: 1
EndChar

StartChar: numbersign
Encoding: 35 35 67
Width: 680
Flags: MW
HStem: 0 21G<99 157 99 99 345 403 345 345> 207 54<37 150 37 163 220 396 37 207 466 600> 457 51<80 210 80 223 80 267 280 456 526 642> 690 20G<272 330 330 330 518 576 576 576>
VStem: 37 605<207 457 261 457>
LayerCount: 2
Fore
SplineSet
642 457 m 1
 513 457 l 1
 466 261 l 1
 600 261 l 1
 600 207 l 1
 453 207 l 1
 403 0 l 1
 345 0 l 1
 396 207 l 1
 207 207 l 1
 157 0 l 1
 99 0 l 1
 150 207 l 1
 37 207 l 1
 37 261 l 1
 163 261 l 1
 210 457 l 1
 80 457 l 1
 80 508 l 1
 223 508 l 1
 272 710 l 1
 330 710 l 1
 280 508 l 1
 469 508 l 1
 518 710 l 1
 576 710 l 1
 526 508 l 1
 642 508 l 1
 642 457 l 1
409 261 m 1
 456 457 l 1
 267 457 l 1
 220 261 l 1
 409 261 l 1
EndSplineSet
Validated: 1
EndChar

StartChar: period
Encoding: 46 46 68
Width: 189
Flags: MW
HStem: 0 98<65 124 65 124>
VStem: 65 59<0 98 0 98>
LayerCount: 2
Fore
SplineSet
65 0 m 1
 65 98 l 1
 124 98 l 1
 124 0 l 1
 65 0 l 1
EndSplineSet
Validated: 1
EndChar

StartChar: question
Encoding: 63 63 69
Width: 476
Flags: MW
HStem: 0 107<155 214 155 214> 662 57<206.5 276.5>
VStem: 155 59<0 107 0 107> 378 60<483 575.5>
LayerCount: 2
Fore
SplineSet
154 202 m 1
 154 290 181 337 239 372 c 0
 292 404 378 434 378 532 c 0
 378 619 311 662 242 662 c 0
 171 662 110 617 81 560 c 1
 34 590 l 1
 71 672 156 719 243 719 c 0
 341 719 438 657 438 528 c 0
 438 422 371 387 303 350 c 0
 256 324 212 298 212 202 c 1
 154 202 l 1
155 0 m 1
 155 107 l 1
 214 107 l 1
 214 0 l 1
 155 0 l 1
EndSplineSet
Validated: 1
EndChar

StartChar: quotedbl
Encoding: 34 34 70
Width: 292
Flags: MW
HStem: 522 194<69 128 69 128 164 223 69 164>
VStem: 69 59<522 716 522 716> 164 59<522 716 522 716>
LayerCount: 2
Fore
SplineSet
69 522 m 1
 69 716 l 1
 128 716 l 1
 128 522 l 1
 69 522 l 1
164 522 m 1
 164 716 l 1
 223 716 l 1
 223 522 l 1
 164 522 l 1
EndSplineSet
Validated: 1
EndChar

StartChar: quotesingle
Encoding: 39 39 71
Width: 197
Flags: MW
HStem: 521 195<69 128 69 128>
VStem: 69 59<521 716 521 716>
LayerCount: 2
Fore
SplineSet
69 521 m 1
 69 716 l 1
 128 716 l 1
 128 521 l 1
 69 521 l 1
EndSplineSet
Validated: 1
EndChar

StartChar: semicolon
Encoding: 59 59 72
Width: 205
Flags: MW
HStem: 3 95<70 93 70 136 70 136> 420 98<70 128 70 128>
VStem: 70 58<420 518 420 518> 70 66<3 98 3 98>
LayerCount: 2
Fore
SplineSet
70 420 m 1xe0
 70 518 l 1
 128 518 l 1
 128 420 l 1
 70 420 l 1xe0
76 -81 m 1xd0
 93 3 l 1
 70 3 l 1
 70 98 l 1
 136 98 l 1
 136 3 l 1
 111 -81 l 1
 76 -81 l 1xd0
EndSplineSet
Validated: 1
EndChar

StartChar: slash
Encoding: 47 47 73
Width: 604
Flags: MW
HStem: 0 21G<27 104 27 27> 690 20G<499 576 576 576>
VStem: 27 549
LayerCount: 2
Fore
SplineSet
576 710 m 1
 104 0 l 1
 27 0 l 1
 499 710 l 1
 576 710 l 1
EndSplineSet
Validated: 513
Substitution2: "'frac' Diagonal Fractions lookup 21 subtable" fraction
Substitution2: "'aalt' Access All Alternates lookup 0 subtable" fraction
EndChar

StartChar: underscore
Encoding: 95 95 74
Width: 511
Flags: MW
HStem: -62 62<65 446 65 446>
VStem: 65 381<-62 0 -62 0>
LayerCount: 2
Fore
SplineSet
65 -62 m 1
 65 0 l 1
 446 0 l 1
 446 -62 l 1
 65 -62 l 1
EndSplineSet
Validated: 1
EndChar

StartChar: braceleft
Encoding: 123 123 75
Width: 259
Flags: MW
HStem: -31 57<109.5 209 154 209 154 209> 683 57<154 154 154 209>
VStem: 92 62<26 280 280 293 440 683>
LayerCount: 2
Fore
SplineSet
154 683 m 1
 154 422 l 2
 154 406 148 379 127 360 c 1
 148 342 154 313 154 298 c 2
 154 26 l 1
 209 26 l 1
 209 -31 l 1
 115 -31 l 2
 104 -31 92 -24 92 -1 c 2
 92 280 l 2
 92 306 78 332 53 335 c 1
 53 387 l 1
 81 387 92 423 92 440 c 2
 92 710 l 2
 92 735 108 740 115 740 c 2
 209 740 l 1
 209 683 l 1
 154 683 l 1
EndSplineSet
Validated: 1
EndChar

StartChar: braceright
Encoding: 125 125 76
Width: 259
Flags: MW
HStem: -31 57<50 105 50 144 50 105> 683 57<50 144 50 105>
VStem: 105 62<26 280 431.5 440 440 683 683 683>
LayerCount: 2
Fore
SplineSet
50 683 m 1
 50 740 l 1
 144 740 l 2
 150 740 167 735 167 710 c 2
 167 440 l 2
 167 423 177 387 205 387 c 1
 205 335 l 1
 180 332 167 306 167 280 c 2
 167 -1 l 2
 167 -24 154 -31 144 -31 c 2
 50 -31 l 1
 50 26 l 1
 105 26 l 1
 105 298 l 2
 105 313 110 342 131 360 c 1
 110 379 105 406 105 422 c 2
 105 683 l 1
 50 683 l 1
EndSplineSet
Validated: 1
EndChar

StartChar: bracketleft
Encoding: 91 91 77
Width: 258
Flags: MW
HStem: -40 57<152 207 152 207> 683 57<152 207 152 152>
VStem: 88 64<17 683 17 740 17 740>
LayerCount: 2
Fore
SplineSet
88 -40 m 1
 88 740 l 1
 207 740 l 1
 207 683 l 1
 152 683 l 1
 152 17 l 1
 207 17 l 1
 207 -40 l 1
 88 -40 l 1
EndSplineSet
Validated: 1
EndChar

StartChar: bracketright
Encoding: 93 93 78
Width: 258
Flags: MW
HStem: -40 57<50 106 50 106 50 170> 683 57<50 106 50 170>
VStem: 106 64<17 683 683 683>
LayerCount: 2
Fore
SplineSet
50 -40 m 1
 50 17 l 1
 106 17 l 1
 106 683 l 1
 50 683 l 1
 50 740 l 1
 170 740 l 1
 170 -40 l 1
 50 -40 l 1
EndSplineSet
Validated: 1
EndChar

StartChar: parenleft
Encoding: 40 40 79
Width: 269
Flags: MW
HStem: -10 21G<235 235> 694 20G<236 236> 719 20G<184 184>
VStem: 44 64<291 407 291 414>
LayerCount: 2
Fore
SplineSet
184 739 m 1
 236 714 l 1xd0
 182 633 108 471 108 343 c 0
 108 239 156 110 235 -10 c 1
 184 -37 l 1
 100 88 44 219 44 346 c 0
 44 482 106 609 184 739 c 1
EndSplineSet
Validated: 1
EndChar

StartChar: parenright
Encoding: 41 41 80
Width: 268
Flags: MW
HStem: -10 21G<34 34> 694 20G<32 32> 719 20G<85 85>
VStem: 161 63<291 407>
LayerCount: 2
Fore
SplineSet
84 -37 m 1
 34 -10 l 1
 112 110 161 239 161 343 c 0
 161 471 87 633 32 714 c 1xd0
 85 739 l 1
 162 609 224 482 224 346 c 0
 224 219 169 88 84 -37 c 1
EndSplineSet
Validated: 1
EndChar

StartChar: emdash
Encoding: 8212 8212 81
Width: 901
Flags: MW
HStem: 241 63<65 836 65 836>
VStem: 65 771<241 304 241 304>
LayerCount: 2
Fore
SplineSet
65 241 m 1
 65 304 l 1
 836 304 l 1
 836 241 l 1
 65 241 l 1
EndSplineSet
Validated: 1
EndChar

StartChar: hyphen
Encoding: 45 45 82
Width: 422
Flags: MW
HStem: 241 63<65 357 65 357>
VStem: 65 292<241 304 241 304>
LayerCount: 2
Fore
SplineSet
65 241 m 1
 65 304 l 1
 357 304 l 1
 357 241 l 1
 65 241 l 1
EndSplineSet
Validated: 1
EndChar

StartChar: quotedblleft
Encoding: 8220 8220 83
Width: 316
Flags: MW
HStem: 521 103<107 131 64 131 64 64 228 252> 521 209<89 124 89 131 64 124 89 185 210 245 89 252>
VStem: 64 67<521 624 521 624> 185 67<521 624 521 624>
LayerCount: 2
Fore
SplineSet
124 730 m 1x70
 107 624 l 1
 131 624 l 1xb0
 131 521 l 1
 64 521 l 1
 64 624 l 1
 89 730 l 1
 124 730 l 1x70
245 730 m 1x70
 228 624 l 1
 252 624 l 1xb0
 252 521 l 1
 185 521 l 1
 185 624 l 1
 210 730 l 1
 245 730 l 1x70
EndSplineSet
Validated: 1
EndChar

StartChar: quotedblright
Encoding: 8221 8221 84
Width: 311
Flags: MW
HStem: 521 209<71 71 71 106 192 227 192 192> 627 103<64 88 64 131 64 131 64 185 185 209>
VStem: 64 67<627 730 627 730> 185 67<627 730 627 730>
LayerCount: 2
Fore
SplineSet
71 521 m 1xb0
 88 627 l 1
 64 627 l 1
 64 730 l 1
 131 730 l 1x70
 131 627 l 1
 106 521 l 1
 71 521 l 1xb0
192 521 m 1xb0
 209 627 l 1
 185 627 l 1
 185 730 l 1
 252 730 l 1x70
 252 627 l 1
 227 521 l 1
 192 521 l 1xb0
EndSplineSet
Validated: 1
EndChar

StartChar: quoteleft
Encoding: 8216 8216 85
Width: 196
Flags: MW
HStem: 521 103<107 131 64 131 64 64> 521 209<89 124 89 131 64 124> 710 20G<89 124 124 124>
VStem: 64 67<521 624 521 624>
LayerCount: 2
Fore
SplineSet
124 730 m 1xb0
 107 624 l 1
 131 624 l 1xb0
 131 521 l 1
 64 521 l 1x50
 64 624 l 1
 89 730 l 1
 124 730 l 1xb0
EndSplineSet
Validated: 1
EndChar

StartChar: quoteright
Encoding: 8217 8217 86
Width: 190
Flags: MW
HStem: 521 209<71 71 71 106> 627 103<64 88 64 131 64 131>
VStem: 64 67<627 730 627 730>
LayerCount: 2
Fore
SplineSet
71 521 m 1xa0
 88 627 l 1
 64 627 l 1
 64 730 l 1
 131 730 l 1x60
 131 627 l 1
 106 521 l 1
 71 521 l 1xa0
EndSplineSet
Validated: 513
PairPos2: "'kern' Horizontal Kerning lookup 1 per glyph data 1" uni0455 dx=0 dy=0 dh=-12 dv=0 dx=0 dy=0 dh=0 dv=0
PairPos2: "'kern' Horizontal Kerning lookup 1 per glyph data 1" uni0430 dx=0 dy=0 dh=-11 dv=0 dx=0 dy=0 dh=0 dv=0
EndChar

StartChar: dollar
Encoding: 36 36 87
Width: 619
GlyphClass: 2
Flags: MW
HStem: -6 62<331 335> -5 62<289 293> 652 62<289 293> 652 163<293 293> 653 62<331 335>
VStem: 64 72<483.5 559 483.5 573> 289 46<-103 -6 -103 -5 -103 -5 715 815> 293 38<57 317 394 652 652 652> 505 74<138.5 218>
AnchorPoint: "Anchor-1" 320 723 basechar 0
AnchorPoint: "Anchor-0" 321 0 basechar 0
LayerCount: 2
Fore
SplineSet
579 186 m 0x8d80
 579 59 478 -3 335 -6 c 1
 335 -103 l 1
 289 -103 l 1
 289 -5 l 1x8e80
 193 2 109 36 38 97 c 1
 73 154 l 1
 119 105 199 65 293 57 c 1x4d80
 293 326 l 1
 291 326 l 1
 143 360 64 396 64 511 c 0
 64 635 156 705 289 714 c 1xa680
 289 815 l 1
 335 815 l 1x9680
 335 715 l 1x8e80
 421 711 489 682 544 633 c 1
 510 577 l 1
 472 619 409 649 331 653 c 1
 331 385 l 1
 333 385 l 1
 484 353 579 313 579 186 c 0x8d80
136 521 m 0
 136 446 185 420 293 394 c 1
 293 652 l 1xa580
 184 646 136 597 136 521 c 0
331 56 m 1
 440 57 505 98 505 179 c 0
 505 257 446 288 331 317 c 1
 331 56 l 1
EndSplineSet
Validated: 1
EndChar

StartChar: plus
Encoding: 43 43 88
Width: 415
Flags: MW
HStem: 327 56<52 176 52 176 239 363>
VStem: 176 63<192 327 192 327 383 518>
LayerCount: 2
Fore
SplineSet
363 383 m 1
 363 327 l 1
 239 327 l 1
 239 192 l 1
 176 192 l 1
 176 327 l 1
 52 327 l 1
 52 383 l 1
 176 383 l 1
 176 518 l 1
 239 518 l 1
 239 383 l 1
 363 383 l 1
EndSplineSet
Validated: 1
EndChar

StartChar: equal
Encoding: 61 61 89
Width: 438
Flags: MW
HStem: 194 49<68 370 68 370> 309 49<68 370 68 370>
VStem: 68 302<194 243 194 243 309 358 194 358>
LayerCount: 2
Fore
SplineSet
68 309 m 1
 68 358 l 1
 370 358 l 1
 370 309 l 1
 68 309 l 1
68 194 m 1
 68 243 l 1
 370 243 l 1
 370 194 l 1
 68 194 l 1
EndSplineSet
Validated: 1
EndChar

StartChar: greater
Encoding: 62 62 90
Width: 508
Flags: MW
HStem: 508 20G<55 55>
VStem: 55 419<-11 239 64 239 239 528 239 528>
LayerCount: 2
Fore
SplineSet
474 239 m 1
 55 -11 l 1
 55 64 l 1
 375 259 l 1
 55 455 l 1
 55 528 l 1
 474 276 l 1
 474 239 l 1
EndSplineSet
Validated: 1
EndChar

StartChar: less
Encoding: 60 60 91
Width: 508
Flags: MW
HStem: 508 20G<452 452>
VStem: 33 419<-11 276 -11 276>
LayerCount: 2
Fore
SplineSet
33 276 m 1
 452 528 l 1
 452 455 l 1
 132 259 l 1
 452 64 l 1
 452 -11 l 1
 33 239 l 1
 33 276 l 1
EndSplineSet
Validated: 1
EndChar

StartChar: asciitilde
Encoding: 126 126 92
Width: 511
Flags: MW
HStem: 241 45<306 359.5 306 376> 299 45<149.5 197>
VStem: 66 380<241 338>
LayerCount: 2
Fore
SplineSet
174 344 m 0
 235 344 278 286 334 286 c 0
 385 286 403 333 403 338 c 1
 446 338 l 1
 446 332 419 241 333 241 c 0xa0
 267 241 221 299 173 299 c 0
 126 299 109 243 109 241 c 2
 66 241 l 1
 66 254 95 344 174 344 c 0
EndSplineSet
Validated: 1
EndChar

StartChar: percent
Encoding: 37 37 93
Width: 714
Flags: MW
HStem: -10 40<498.5 552.5 498.5 566.5> -4 21G<99 99> 238 39<498 551> 433 39<163 217 163 231.5> 680 40<162.5 216> 694 20G<616 616>
VStem: 40 51<547.5 603.5 547.5 616> 288 51<548.5 605> 376 51<105 161.5 105 173.5> 623 52<106 162.5>
LayerCount: 2
Fore
SplineSet
40 576 m 0xbbc0
 40 656 107 720 190 720 c 0
 273 720 339 656 339 576 c 0
 339 497 273 433 190 433 c 0
 107 433 40 497 40 576 c 0xbbc0
65 27 m 1x77c0
 344 367 l 1
 616 714 l 1
 651 684 l 1
 372 344 l 1
 99 -4 l 1
 65 27 l 1x77c0
288 576 m 0xbbc0
 288 634 242 680 190 680 c 0
 135 680 91 631 91 576 c 0
 91 519 136 472 190 472 c 0
 244 472 288 521 288 576 c 0xbbc0
376 134 m 0
 376 213 443 277 525 277 c 0
 608 277 675 213 675 134 c 0
 675 54 608 -10 525 -10 c 0
 443 -10 376 54 376 134 c 0
623 134 m 0
 623 191 577 238 525 238 c 0
 471 238 427 189 427 134 c 0
 427 76 472 30 525 30 c 0
 580 30 623 78 623 134 c 0
EndSplineSet
Validated: 1
EndChar

StartChar: at
Encoding: 64 64 94
Width: 837
Flags: MW
HStem: -146 34<317 438> -16 37<618 682.5 618 702.5> 5 43<354 401.5 354 417> 234 39<380 446 373 447> 411 44<395 469> 569 34<325 509.5>
VStem: 47 36<135 328.5 135 343> 232 46<113.5 176.5 113.5 190> 543 46<172 212 212 212> 745 36<193.5 320.5>
LayerCount: 2
Fore
SplineSet
781 222 m 0xdfc0
 781 165 770 -16 635 -16 c 0xdfc0
 568 -16 556 28 551 76 c 1
 514 37 452 5 382 5 c 0xbfc0
 288 5 232 61 232 139 c 0
 232 241 329 273 417 273 c 0
 475 273 522 258 544 250 c 1
 544 345 518 411 420 411 c 0
 368 411 319 393 280 364 c 1
 262 403 l 1
 310 435 364 455 426 455 c 0
 574 455 589 346 589 250 c 2
 589 121 l 2
 589 62 595 21 641 21 c 0
 724 21 745 151 745 224 c 0
 745 417 603 569 416 569 c 0
 234 569 83 427 83 230 c 0
 83 40 223 -112 411 -112 c 0
 468 -112 515 -98 564 -74 c 1
 577 -106 l 1
 523 -133 466 -146 410 -146 c 0
 211 -146 47 13 47 230 c 0
 47 456 224 603 417 603 c 0
 614 603 781 449 781 222 c 0xdfc0
543 172 m 2
 543 212 l 1
 526 214 479 234 415 234 c 0
 345 234 278 212 278 141 c 0
 278 86 323 48 385 48 c 0
 418 48 453 58 478 70 c 0xbfc0
 534 96 543 135 543 172 c 2
EndSplineSet
Validated: 1
EndChar

StartChar: ampersand
Encoding: 38 38 95
Width: 667
Flags: MW
HStem: -10 55<239.5 314.5 239.5 316.5> 0 21G<571 661 571 571> 666 53<245 308>
VStem: 47 66<136.5 217 136.5 231> 100 63<549 592.5 549 607> 381 63<548.5 603> 531 58<324 356>
LayerCount: 2
Fore
SplineSet
661 0 m 1x6e
 571 0 l 1x6e
 489 86 l 1
 434 26 359 -10 274 -10 c 0
 149 -10 47 68 47 183 c 0xb6
 47 279 117 341 197 394 c 1
 125 471 100 513 100 563 c 0
 100 651 177 719 278 719 c 0
 371 719 444 662 444 579 c 0
 444 497 374 444 290 388 c 1
 488 181 l 1
 515 231 531 292 531 356 c 1
 589 356 l 1
 589 274 567 199 529 138 c 1
 661 0 l 1x6e
278 666 m 0
 212 666 163 620 163 565 c 0
 163 533 179 504 250 429 c 1
 328 481 381 520 381 577 c 0
 381 629 338 666 278 666 c 0
281 45 m 0xb6
 348 45 407 76 451 127 c 1
 236 353 l 1
 166 304 113 253 113 181 c 0
 113 92 198 45 281 45 c 0xb6
EndSplineSet
Validated: 1
EndChar

StartChar: bar
Encoding: 124 124 96
Width: 231
Flags: MW
HStem: -130 905<86 145 86 145>
VStem: 86 59<-130 775 -130 775>
LayerCount: 2
Fore
SplineSet
86 -130 m 1
 86 775 l 1
 145 775 l 1
 145 -130 l 1
 86 -130 l 1
EndSplineSet
Validated: 1
EndChar

StartChar: asciicircum
Encoding: 94 94 97
Width: 539
Flags: MW
HStem: 646 64<270 270> 690 20G<241 299 299 299>
VStem: 43 453<303 303>
LayerCount: 2
Fore
SplineSet
43 303 m 1x60
 241 710 l 1
 299 710 l 1
 496 303 l 1
 436 303 l 1
 270 646 l 1xa0
 101 303 l 1
 43 303 l 1x60
EndSplineSet
Validated: 1
EndChar

StartChar: grave
Encoding: 96 96 98
Width: 222
Flags: MW
HStem: 710 20G<49 120 120 120>
VStem: 49 131<637 730>
LayerCount: 2
Fore
SplineSet
49 730 m 1
 120 730 l 1
 180 637 l 1
 136 620 l 1
 49 730 l 1
EndSplineSet
Validated: 1
EndChar
